<?xml version="1.0" standalone="no"?>
<!DOCTYPE svg PUBLIC "-//W3C//DTD SVG 1.1//EN" "http://www.w3.org/Graphics/SVG/1.1/DTD/svg11.dtd" >
<svg xmlns="http://www.w3.org/2000/svg">
<metadata>Generated by IcoMoon</metadata>
<defs>
<font id="icomoon" horiz-adv-x="1024">
<font-face units-per-em="1024" ascent="960" descent="-64" />
<missing-glyph horiz-adv-x="1024" />
<glyph unicode="&#x20;" horiz-adv-x="512" d="" />
<glyph unicode="&#xe900;" glyph-name="arrow-bar-right" horiz-adv-x="1170" d="M606.283 938.51c13.242 13.275 31.553 21.487 51.782 21.487s38.54-8.213 51.781-21.486l438.995-438.782c13.275-13.242 21.487-31.553 21.487-51.782s-8.213-38.54-21.486-51.781l-438.782-438.782c-13.271-13.298-31.619-21.524-51.889-21.524-40.486 0-73.307 32.821-73.307 73.307 0 20.217 8.184 38.522 21.419 51.784l387.078 387.024-387.079 387.025c-13.275 13.242-21.487 31.553-21.487 51.782s8.213 38.54 21.486 51.781l0.001 0.001zM0 447.973c0 40.394 32.745 73.139 73.139 73.139v0h950.648c40.394 0 73.139-32.745 73.139-73.139s-32.745-73.139-73.139-73.139v0h-950.648c-40.394 0-73.139 32.745-73.139 73.139v0z" />
<glyph unicode="&#xe901;" glyph-name="calendar" d="M826.697 881.489h-38.231v38.511c0 22.092-17.909 40.001-40.001 40.001s-40.001-17.909-40.001-40.001v0-38.511h-392.463v38.511c0 22.092-17.909 40.001-40.001 40.001s-40.001-17.909-40.001-40.001v0-38.511h-38.185c-109.257-0.106-197.789-88.687-197.815-197.952v-549.768c0.238-109.108 88.689-197.477 197.805-197.582h628.892c109.106 0.132 197.53 88.491 197.768 197.559v549.789c-0.026 109.251-88.532 197.822-197.756 197.955h-0.013zM197.815 801.348h38.231v-78.185c0-22.092 17.909-40.001 40.001-40.001s40.001 17.909 40.001 40.001v0 78.185h392.463v-78.185c0-22.092 17.909-40.001 40.001-40.001s40.001 17.909 40.001 40.001v0 78.185h38.231c65.009-0.079 117.687-52.758 117.767-117.759v-38.239h-864.509v38.185c0.080 65.025 52.785 117.714 117.809 117.767h0.005zM826.464 16.001h-628.649c-65.045 0.053-117.76 52.768-117.814 117.808v431.538h864.463v-431.533c-0.053-65.045-52.768-117.76-117.808-117.814h-0.005zM355.35 407.999c0-22.092-17.909-40.001-40.001-40.001v0h-78.698c-22.092 0-40.001 17.909-40.001 40.001s17.909 40.001 40.001 40.001v0h78.698c22.092 0 40.001-17.909 40.001-40.001v0zM827.815 407.999c0-22.092-17.909-40.001-40.001-40.001v0h-78.698c-22.092 0-40.001 17.909-40.001 40.001s17.909 40.001 40.001 40.001v0h78.651c0.014 0 0.030 0 0.047 0 22.092 0 40.001-17.909 40.001-40.001v0zM591.35 407.999c0-22.092-17.909-40.001-40.001-40.001h-78.698c-22.092 0-40.001 17.909-40.001 40.001s17.909 40.001 40.001 40.001v0h78.698c0.014 0 0.030 0 0.047 0 22.092 0 40.001-17.909 40.001-40.001v0zM355.35 172c0-22.092-17.909-40.001-40.001-40.001v0h-78.698c-22.092 0-40.001 17.909-40.001 40.001s17.909 40.001 40.001 40.001v0h78.698c22.092 0 40.001-17.909 40.001-40.001v0zM827.815 172c0-22.092-17.909-40.001-40.001-40.001h-78.698c-22.092 0-40.001 17.909-40.001 40.001s17.909 40.001 40.001 40.001v0h78.651c0.014 0 0.030 0 0.047 0 22.092 0 40.001-17.909 40.001-40.001v0zM591.35 172c0-22.092-17.909-40.001-40.001-40.001v0h-78.698c-22.092 0-40.001 17.909-40.001 40.001s17.909 40.001 40.001 40.001v0h78.698c0.014 0 0.030 0 0.047 0 22.092 0 40.001-17.909 40.001-40.001v0z" />
<glyph unicode="&#xe902;" glyph-name="call-center" horiz-adv-x="883" d="M760.367 185.671c-32.578 10.391-109.369 29.328-161.125 41.766 20.495 19.674 38.428 41.766 53.411 65.884l0.833 1.439c4.912 7.973 9.976 17.502 14.47 27.346l0.696 1.701h71.214c55.468 0.341 100.302 45.386 100.302 100.902 0 0.085 0 0.171 0 0.256v-0.013 116.591c0 0.077 0 0.168 0 0.258 0 55.065-44.108 99.827-98.919 100.884l-0.099 0.002v17.653c0.001 0.204 0.001 0.444 0.001 0.685 0 164.628-133.059 298.179-297.5 298.976h-1.52c-164.552-0.752-297.656-134.32-297.656-298.976 0-0.241 0-0.482 0.001-0.722v0.038-17.653c-55.468-0.341-100.302-45.386-100.302-100.902 0-0.099 0-0.199 0-0.298v0.015-116.751c0-0.072 0-0.157 0-0.243 0-55.516 44.834-100.56 100.269-100.902h69.723c5.187-11.542 10.251-21.072 15.843-30.243l-0.678 1.196c15.793-25.54 33.7-47.62 54.050-67.175l0.113-0.107c-51.395-12.357-128.386-31.334-161.085-41.806-69.263-18.789-119.798-79.976-122.28-153.349l-0.007-0.274v-65.878c0-0.048 0-0.104 0-0.161 0-16.415 13.25-29.736 29.639-29.849h823.247c16.399 0.113 29.65 13.434 29.65 29.849 0 0.057 0 0.113 0 0.17v-0.009 65.918c-2.417 73.712-52.975 134.977-121.135 153.515l-1.153 0.267zM576.093 171.308l-47.102-55.567-17.493 43.812c11.312 5.381 21.042 11.399 30.027 18.335l-0.378-0.28 1.966 1.525zM441.327 143.705c4.012 0 8.024 0 12.317 0.481l31.856-79.76-44.133-52.157-44.133 52.157 31.896 79.8c4.012-0.321 8.024-0.481 12.317-0.481zM602.773 325.973c-26.387-39.76-58.815-73.159-96.373-99.801l-1.16-0.781c-17.513-13.5-39.759-21.645-63.907-21.665h-0.005c-0.116 0-0.253-0.001-0.39-0.001-24.028 0-46.151 8.152-63.756 21.841l0.234-0.175c-33.83 24.565-62.857 52.98-87.285 85.086l-0.74 1.013 62.668-10.873c10.515-25.692 35.255-43.493 64.173-43.651h50.050c38.436 0.273 69.49 31.494 69.49 69.969 0 0.099 0 0.199-0.001 0.298v-0.015 1.123c0 0.001 0 0.001 0 0.002 0 38.446-31.007 69.65-69.379 69.968h-50.060c-26.647-0.090-49.75-15.174-61.323-37.251l-0.182-0.382-97.092 16.851c-5.114 18.803-8.052 40.392-8.052 62.668 0 1.298 0.010 2.594 0.030 3.887l-0.002-0.195v71.656l87.262 88.265h202.329l93.521-94.564v-65.557c0.080-2.206 0.126-4.797 0.126-7.398 0-40.766-11.23-78.908-30.765-111.503l0.548 0.987zM406.182 327.217v1.123c0 0.012 0 0.026 0 0.040 0 5.622 4.535 10.185 10.146 10.23h50.034c5.616-0.045 10.151-4.608 10.151-10.23 0-0.014 0-0.028 0-0.043v0.002-1.123c0-0.012 0-0.026 0-0.040 0-5.622-4.535-10.185-10.146-10.23h-50.034c-5.574 0.045-10.083 4.54-10.15 10.104v0.006zM249.912 600.559c3.288 103.4 87.603 186.045 191.358 186.641h0.058c0.064 0 0.139 0 0.214 0 52.932 0 100.787-21.741 135.122-56.779l0.031-0.032c34.715-34.966 56.169-83.136 56.169-136.318 0-0.032 0-0.065 0-0.097v0.005l-60.221 61.104c-5.347 5.422-12.772 8.782-20.982 8.786h-226.923c-8.211-0.005-15.636-3.365-20.98-8.783l-0.003-0.003zM780.788 541.541v-116.751c0 0 0 0 0 0 0-22.692-18.361-41.095-41.037-41.164h-46.627v199.239h46.7c22.648-0.114 40.964-18.5 40.964-41.163 0-0.057 0-0.113 0-0.17v0.009zM442.13 899.819h1.444c129.862-0.529 235.28-104.443 238.232-233.668l0.005-0.275c-12.595 41.895-34.4 77.795-63.166 106.777l0.016-0.016c-45.011 45.919-107.682 74.384-177.001 74.384-0.117 0-0.233 0-0.35 0h0.018c-109.415-0.504-202.282-70.795-236.417-168.628l-0.536-1.765c8.599 124.732 111.659 222.718 237.708 223.191h0.047zM144.354 383.466c-22.682 0.068-41.043 18.472-41.043 41.164 0 0 0 0 0 0v0 116.912c0 0.048 0 0.104 0 0.161 0 22.692 18.361 41.095 41.037 41.164h46.106l0.642-199.079zM341.507 177.286c8.607-6.655 18.337-12.673 28.671-17.631l0.978-0.423-17.493-43.812-47.142 55.647 32.939 8.024 2.086-1.605zM59.338 31.728c2.922 46.91 36.076 85.321 80.079 96.139l0.724 0.151c20.702 6.62 61.625 17.172 101.586 27.122l135.086-159.44h-317.475zM823.316-4.18h-317.515l135.086 159.399c40.121-9.95 81.004-20.502 101.626-27.081 44.727-10.968 77.881-49.379 80.788-95.987l0.015-0.302v-35.908z" />
<glyph unicode="&#xe903;" glyph-name="call" d="M1023.302 117.201c-3.3 25.041-17.976 46.081-38.582 58.027l-0.377 0.202-252.602 145.455c-11.357 6.676-25.016 10.619-39.596 10.619-21.833 0-41.6-8.842-55.916-23.141l0.001 0.001-49.804-49.897c-6.604-6.651-15.753-10.768-25.864-10.768-8.692 0-16.674 3.043-22.937 8.122l0.068-0.053c-41.786 33.845-79.203 67.605-114.763 103.219l-0.018 0.018c-35.613 35.575-69.358 72.992-101.091 112.108l-2.1 2.673c-5 6.187-8.027 14.149-8.027 22.818 0 10.113 4.119 19.264 10.771 25.867l49.852 49.806c14.323 14.32 23.182 34.104 23.182 55.958 0 14.544-3.924 28.171-10.771 39.881l0.202-0.375-145.548 252.602c-13.93 23.845-39.4 39.611-68.553 39.611-21.876 0-41.678-8.877-56.001-23.226l-0.001-0.001-74.985-74.892c-52.317-52.317-53.155-148.061-2.374-269.545 65.323-140.768 151.599-260.758 256.335-361.729l0.364-0.348c101.319-105.101 221.309-191.377 354.758-253.632l7.319-3.066c46.477-21.654 100.669-35.243 157.774-37.49l0.806-0.025c2.502-0.148 5.427-0.232 8.373-0.232 39.643 0 75.723 15.254 102.691 40.212l-0.099-0.091 74.892 74.985c14.329 14.236 23.198 33.953 23.198 55.741 0 3.733-0.26 7.406-0.764 11l0.048-0.414zM715.171 292.119l252.602-145.455c13.832-8.090 22.977-22.872 22.977-39.789 0-10.291-3.384-19.792-9.099-27.45l0.086 0.121-335.686 191.581 13.638 13.638c8.328 8.316 19.827 13.459 32.527 13.459 8.431 0 16.332-2.266 23.128-6.223l-0.219 0.118zM176.826 926.441c14.533-1.921 26.743-10.441 33.675-22.402l0.117-0.219 145.455-252.649c3.839-6.577 6.105-14.478 6.105-22.909 0-12.7-5.143-24.199-13.46-32.528l0.001 0.001-12.474-12.753-192.698 334.848c7.471 5.629 16.907 9.019 27.133 9.030h0.003c2.171-0.005 4.302-0.157 6.389-0.447l-0.245 0.028zM902.377-0.652c-41.565-41.565-126.604-39.843-233.286 4.655-136.626 63.548-253.079 147.406-351.070 249.167l-0.348 0.364c-102.124 98.339-185.982 214.792-246.547 344.316l-2.983 7.102c-44.637 106.682-46.545 191.721-4.655 233.286l55.855 55.855 192.465-335.174-12.8-13.172c-12.653-12.638-20.48-30.105-20.48-49.4 0-16.598 5.792-31.843 15.464-43.824l-0.104 0.133c34.636-42.748 69.187-81.031 105.636-117.412l0.022-0.022c36.405-36.47 74.687-71.022 114.708-103.515l2.726-2.144c11.849-9.569 27.093-15.36 43.691-15.36 19.295 0 36.762 7.827 49.399 20.48l11.824 11.824 336.198-191.86-55.622-55.622z" />
<glyph unicode="&#xe904;" glyph-name="camera" horiz-adv-x="1258" d="M831.639 363.195c0-0.017 0-0.037 0-0.057 0-112.016-90.807-202.822-202.822-202.822s-202.822 90.807-202.822 202.822c0 112.016 90.807 202.822 202.822 202.822v0c111.943-0.13 202.66-90.826 202.822-202.749v-0.016zM1257.634 651.136v-576.054c0-76.813-62.27-139.083-139.083-139.083v0h-979.468c-76.813 0-139.083 62.27-139.083 139.083v0 576.054c0 76.813 62.27 139.083 139.083 139.083v0h171.038v48.076c0 0.017 0 0.037 0 0.057 0 67.184 54.463 121.648 121.648 121.648h394.040c0.017 0 0.037 0 0.057 0 67.184 0 121.648-54.463 121.648-121.648 0-0.020 0-0.040 0-0.060v0.003-48.076h171.038c76.8-0.033 139.050-62.283 139.083-139.080v-0.003zM935.966 363.195c-0.065 169.553-137.53 306.977-307.091 306.977-169.602 0-307.091-137.489-307.091-307.091 0-169.582 137.457-307.059 307.031-307.091h0.003c169.575 0.195 306.986 137.626 307.149 307.19v0.015z" />
<glyph unicode="&#xe905;" glyph-name="cart-1" horiz-adv-x="1149" d="M1104.882 809.932l-703.553 148.867c-3.403 0.742-7.312 1.167-11.32 1.167-26.518 0-48.692-18.596-54.194-43.458l-0.069-0.369-13.367-85.895 811.796-171.789 13.367 85.895c0.748 3.415 1.176 7.338 1.176 11.36 0 26.511-18.604 48.677-43.469 54.155l-0.368 0.068zM809.028 640.232c-6.834 23.779-28.39 40.884-53.942 40.884-5.257 0-10.344-0.724-15.168-2.077l0.394 0.095-133.567-37.073-314.86 66.627-34.619-163.591-216.381-60.048c-23.758-6.827-40.847-28.364-40.847-53.892 0-5.275 0.73-10.379 2.093-15.218l-0.095 0.394 121.923-439.394c6.85-23.754 28.394-40.835 53.928-40.835 5.262 0 10.354 0.725 15.182 2.081l-0.394-0.095 699.428 194.085c23.754 6.85 40.835 28.394 40.835 53.928 0 5.262-0.725 10.354-2.081 15.182l0.095-0.394-20.886 75.452 78.323-16.605c3.415-0.748 7.338-1.176 11.36-1.176 26.511 0 48.677 18.604 54.155 43.469l0.068 0.368 49.605 234.5-282.539 59.787zM889.806 416.906l17.283 81.77c2.285 10.379 11.404 18.031 22.31 18.031 1.659 0 3.277-0.177 4.835-0.513l-0.15 0.027 81.77-17.283c10.379-2.285 18.031-11.404 18.031-22.31 0-1.659-0.177-3.277-0.513-4.835l0.027 0.15-17.283-81.77c-2.285-10.379-11.404-18.031-22.31-18.031-1.659 0-3.277 0.177-4.835 0.513l0.15-0.027-81.77 17.283c-10.384 2.281-18.041 11.403-18.041 22.313 0 1.677 0.181 3.312 0.524 4.886l-0.028-0.151zM53.051 441.134l699.376 194.033c0.797 0.225 1.713 0.358 2.659 0.365h0.004c4.726 0 8.718-3.139 10.006-7.445l0.019-0.074 5.796-20.886 18.067-65.165-719.27-199.411-23.863 85.738c-0.251 0.853-0.396 1.834-0.396 2.848 0 4.756 3.179 8.769 7.528 10.031l0.074 0.018zM887.091 188.671c0.218-0.796 0.343-1.711 0.343-2.654 0-4.736-3.153-8.736-7.475-10.015l-0.074-0.019-699.376-194.085c-0.797-0.225-1.713-0.358-2.659-0.365h-0.004c-4.739 0.007-8.737 3.169-10.007 7.497l-0.019 0.074-71.118 256.431 719.27 199.62 43.861-158.057zM293.504 171.127c-2.834 9.607-11.575 16.499-21.926 16.499-2.176 0-4.281-0.305-6.275-0.874l0.161 0.039-81.665-22.662c-9.607-2.834-16.499-11.575-16.499-21.926 0-2.176 0.305-4.281 0.874-6.275l-0.039 0.161 22.662-81.665c2.834-9.607 11.575-16.499 21.926-16.499 2.176 0 4.281 0.305 6.275 0.874l-0.161-0.039 81.665 22.662c9.607 2.834 16.499 11.575 16.499 21.926 0 2.176-0.305 4.281-0.874 6.275l0.039-0.161z" />
<glyph unicode="&#xe906;" glyph-name="cart-2" d="M170.116 50.171c-3.612 3.603-8.597 5.831-14.102 5.831-11.028 0-19.967-8.94-19.967-19.967s8.94-19.967 19.967-19.967c11.028 0 19.967 8.94 19.967 19.967 0 0.061 0 0.121-0.001 0.182v-0.009c-0.070 5.455-2.297 10.378-5.865 13.964l0.001-0.001zM939.012 594.123c-3.602 3.587-8.57 5.804-14.055 5.804-11.002 0-19.921-8.919-19.921-19.921s8.919-19.921 19.921-19.921c11.002 0 19.921 8.919 19.921 19.921 0 0.054 0 0.108-0.001 0.162v-0.008c-0.065 5.456-2.293 10.38-5.865 13.964l0.001-0.001zM1018.089 954.136c-3.578 3.58-8.505 5.81-13.953 5.864h-492.159c-11.053 0-20.014-8.96-20.014-20.014v-57.202l-189.757-50.779c-8.518-2.426-14.65-10.137-14.65-19.282 0-1.85 0.251-3.641 0.721-5.341l-0.033 0.141 98.253-366.668-84.988-85.035c-10.941 15.894-29.028 26.186-49.519 26.204h-191.808c-0.028 0-0.060 0-0.093 0-33.169 0-60.061-26.876-60.087-60.038v-325.806c0-0.014 0-0.030 0-0.047 0-33.185 26.902-60.087 60.087-60.087 0.033 0 0.065 0 0.098 0h191.8c27.996 0.039 51.501 19.217 58.135 45.15l0.090 0.416 23.784-20.758c17.606-15.409 40.812-24.808 66.213-24.808 0.006 0 0.013 0 0.019 0h603.713c11.053 0 20.014 8.96 20.014 20.014v0 983.926c-0.001 5.526-2.242 10.528-5.864 14.149v0zM271.999-4.006c0-11.053-8.96-20.014-20.014-20.014v0h-191.805c-11.053 0-20.014 8.96-20.014 20.014v0 325.803c0 11.053 8.96 20.014 20.014 20.014h75.819v-230.39c-0.015-0.288-0.023-0.625-0.023-0.965 0-11.053 8.96-20.014 20.014-20.014s20.014 8.96 20.014 20.014c0 0.339-0.008 0.677-0.025 1.012l0.002-0.047v230.39h76.005c11.053 0 20.014-8.96 20.014-20.014v0-325.803zM332.087 798.541l159.923 42.866v-74.144l-13.404-3.584c-8.518-2.426-14.65-10.137-14.65-19.282 0-1.85 0.251-3.641 0.721-5.341l-0.033 0.141c1.159-4.171 1.825-8.96 1.825-13.905 0-24.787-16.732-45.666-39.518-51.958l-0.379-0.089c-8.524-2.422-14.662-10.136-14.662-19.285 0-1.865 0.255-3.671 0.733-5.384l-0.033 0.141 77.96-288.569h-40.539l-20.665 80.939c-0.707 2.652-1.86 4.968-3.387 6.985l0.036-0.050zM492.010 675.574v-168.766l-36.49 134.976c15.125 7.959 27.454 19.422 36.215 33.355l0.228 0.389zM779.322-23.973h-379.095c-15.323 0.009-29.318 5.685-40.004 15.047l0.070-0.060-48.312 41.889v276.793l87.315 87.129 15.825-61.949c2.291-8.705 10.087-15.023 19.361-15.033h393.199c15.423 0 27.926-12.503 27.926-27.926s-12.503-27.926-27.926-27.926h-201.44c-0.288 0.015-0.625 0.023-0.965 0.023-11.053 0-20.014-8.96-20.014-20.014s8.96-20.014 20.014-20.014c0.339 0 0.677 0.008 1.012 0.025l-0.047-0.002h264.087c15.423 0 27.926-12.503 27.926-27.926s-12.503-27.926-27.926-27.926h-264.087c-0.288 0.015-0.625 0.023-0.965 0.023-11.053 0-20.014-8.96-20.014-20.014s8.96-20.014 20.014-20.014c0.339 0 0.677 0.008 1.012 0.025l-0.047-0.002h221.267c15.423 0 27.926-12.503 27.926-27.926s-12.503-27.926-27.926-27.926h-221.267c-0.288 0.015-0.625 0.023-0.965 0.023-11.053 0-20.014-8.96-20.014-20.014s8.96-20.014 20.014-20.014c0.339 0 0.677 0.008 1.012 0.025l-0.047-0.002h153.034c15.423 0 27.926-12.503 27.926-27.926s-12.503-27.926-27.926-27.926v0zM984.112-23.973h-142.888c3.803 8.204 6.022 17.806 6.022 27.926s-2.218 19.722-6.195 28.346l0.174-0.42h6.283c0.016 0 0.035 0 0.055 0 37.53 0 67.953 30.424 67.953 67.953 0 11.115-2.669 21.607-7.401 30.87l0.178-0.384c29.050 8.15 49.996 34.398 49.996 65.538 0 15.27-5.037 29.364-13.54 40.711l0.127-0.177v253.522c-0.529 10.63-9.277 19.049-19.99 19.049s-19.461-8.419-19.988-19.002l-0.002-0.047v-227.597c-4.378 1.005-9.405 1.581-14.567 1.582h-0.653c3.831 8.243 6.067 17.893 6.067 28.066 0 37.53-30.424 67.953-67.953 67.953-0.022 0-0.044 0-0.066 0h-32.158c34.442 14.994 58.086 48.733 58.086 87.994 0 52.85-42.843 95.693-95.693 95.693s-95.693-42.843-95.693-95.693c0-39.261 23.644-73 57.469-87.754l0.617-0.24h-109.33v380.352c35.88 8.094 63.629 35.843 71.603 71.093l0.12 0.63h150.428c8.094-35.88 35.843-63.629 71.093-71.603l0.63-0.12v-62.182c0.529-10.63 9.277-19.049 19.99-19.049s19.461 8.419 19.988 19.002l0.002 0.047v80.055c0 11.053-8.96 20.014-20.014 20.014v0c-29.73 0.027-53.824 24.12-53.851 53.848v0.002c0 11.053-8.96 20.014-20.014 20.014v0h-186.173c-11.053 0-20.014-8.96-20.014-20.014v0c-0.027-29.73-24.12-53.824-53.848-53.851h-0.002c-11.053 0-20.014-8.96-20.014-20.014v0-398.132h-39.050v559.963h451.982zM757.958 392.171c-30.846 0-55.852 25.006-55.852 55.852s25.006 55.852 55.852 55.852c30.846 0 55.852-25.006 55.852-55.852v0c0-30.846-25.006-55.852-55.852-55.852v0z" />
<glyph unicode="&#xe907;" glyph-name="cart-3" d="M802.164 669.882c-37.684 0.026-68.229 30.555-68.282 68.231v0.005c0 0.028 0 0.060 0 0.093 0 9.409-7.627 17.036-17.036 17.036-0.016 0-0.033 0-0.049 0h-546.115c-0.014 0-0.030 0-0.047 0-9.409 0-17.036-7.627-17.036-17.036 0-0.016 0-0.033 0-0.049v0.003c-0.026-37.701-30.582-68.256-68.28-68.282h-0.003c-9.409 0-17.036-7.627-17.036-17.036v0-136.518c0-0.014 0-0.030 0-0.047 0-9.409 7.627-17.036 17.036-17.036 0.016 0 0.033 0 0.049 0h-0.003c37.701-0.026 68.256-30.582 68.282-68.28v-0.003c0-0.014 0-0.030 0-0.047 0-9.409 7.627-17.036 17.036-17.036 0.016 0 0.033 0 0.049 0h546.068c0.014 0 0.030 0 0.047 0 9.409 0 17.036 7.627 17.036 17.036 0 0.016 0 0.033 0 0.049v-0.003c0.026 37.701 30.582 68.256 68.28 68.282h0.003c0.014 0 0.030 0 0.047 0 9.409 0 17.036 7.627 17.036 17.036 0 0.016 0 0.033 0 0.049v-0.003 136.518c0 0 0 0 0 0 0 9.409-7.627 17.036-17.036 17.036-0.016 0-0.033 0-0.049 0h0.003zM785.082 531.828c-42.876-7.576-76.206-40.906-83.691-83.163l-0.091-0.619h-514.979c-7.576 42.876-40.906 76.206-83.163 83.691l-0.619 0.091v105.332c42.876 7.576 76.206 40.906 83.691 83.163l0.091 0.619h514.979c7.576-42.876 40.906-76.206 83.163-83.691l0.619-0.091zM443.718 669.929c-47.12 0-85.318-38.198-85.318-85.318s38.198-85.318 85.318-85.318c47.12 0 85.318 38.198 85.318 85.318v0c-0.053 47.098-38.219 85.265-85.313 85.318h-0.005zM443.718 533.411c-28.277 0-51.2 22.923-51.2 51.2s22.923 51.2 51.2 51.2c28.277 0 51.2-22.923 51.2-51.2v0c0-0.014 0-0.030 0-0.047 0-28.277-22.923-51.2-51.2-51.2v0zM1006.918 960.047h-853.318c-0.014 0-0.030 0-0.047 0-9.409 0-17.036-7.627-17.036-17.036 0-0.016 0-0.033 0-0.049v0.003-51.2h-51.2c-0.014 0-0.030 0-0.047 0-9.409 0-17.036-7.627-17.036-17.036 0-0.016 0-0.033 0-0.049v0.003-51.2h-51.153c-0.014 0-0.030 0-0.047 0-9.409 0-17.036-7.627-17.036-17.036 0 0 0 0 0 0v0-443.718c0-0.014 0-0.030 0-0.047 0-9.409 7.627-17.036 17.036-17.036 0.016 0 0.033 0 0.049 0h853.315c0.014 0 0.030 0 0.047 0 9.409 0 17.036 7.627 17.036 17.036 0 0.016 0 0.033 0 0.049v-0.003 51.2h51.2c0.014 0 0.030 0 0.047 0 9.409 0 17.036 7.627 17.036 17.036 0 0.016 0 0.033 0 0.049v-0.003 51.2h51.2c9.409 0 17.036 7.627 17.036 17.036v0 443.671c0 0.028 0 0.060 0 0.093 0 9.409-7.627 17.036-17.036 17.036-0.016 0-0.033 0-0.049 0h0.003zM853.318 430.964v-51.2h-819.2v409.6h819.2zM921.6 448.047h-34.118v358.4c0 0.014 0 0.030 0 0.047 0 9.409-7.627 17.036-17.036 17.036-0.016 0-0.033 0-0.049 0h-767.997v34.118h819.2zM989.882 516.329h-34.118v358.4c0 0.014 0 0.030 0 0.047 0 9.409-7.627 17.036-17.036 17.036-0.016 0-0.033 0-0.049 0h-767.997v34.071h819.2zM1017.158 137.356l-204.8 153.6c-2.818 2.129-6.379 3.409-10.24 3.409-9.422 0-17.062-7.628-17.082-17.045v-68.284h-273.082c-0.014 0-0.030 0-0.047 0-9.409 0-17.036-7.627-17.036-17.036 0-0.016 0-0.033 0-0.049v0.003-136.518c0-0.014 0-0.030 0-0.047 0-9.409 7.627-17.036 17.036-17.036 0.016 0 0.033 0 0.049 0h273.079v-85.318c0-0.006 0-0.013 0-0.021 0-6.789 3.972-12.651 9.718-15.388l0.103-0.044c2.111-1.028 4.593-1.629 7.214-1.629v0c4.172 0.007 7.994 1.5 10.966 3.979l-0.028-0.022 204.8 170.682c3.755 3.155 6.125 7.853 6.125 13.105 0 5.565-2.661 10.509-6.781 13.628l-0.043 0.031zM819.2-10.519v65.955c0 0.014 0 0.030 0 0.047 0 9.409-7.627 17.036-17.036 17.036-0.016 0-0.033 0-0.049 0h-273.079v102.4h273.082c0.014 0 0.030 0 0.047 0 9.409 0 17.036 7.627 17.036 17.036 0 0.016 0 0.033 0 0.049v-0.003 51.2l160.256-120.18zM443.718 209.129h-68.282c-0.014 0-0.030 0-0.047 0-9.409 0-17.036-7.627-17.036-17.036 0-0.016 0-0.033 0-0.049v0.003-136.518c0-0.014 0-0.030 0-0.047 0-9.409 7.627-17.036 17.036-17.036 0.016 0 0.033 0 0.049 0h68.279c0.014 0 0.030 0 0.047 0 9.409 0 17.036 7.627 17.036 17.036 0 0.016 0 0.033 0 0.049v-0.003 136.518c0 0.014 0 0.030 0 0.047 0 9.409-7.627 17.036-17.036 17.036-0.016 0-0.033 0-0.049 0h0.003zM426.636 72.611h-34.118v102.4h34.118zM273.036 209.129h-68.236c-0.014 0-0.030 0-0.047 0-9.409 0-17.036-7.627-17.036-17.036 0-0.016 0-0.033 0-0.049v0.003-136.518c0-0.014 0-0.030 0-0.047 0-9.409 7.627-17.036 17.036-17.036 0.016 0 0.033 0 0.049 0h68.279c0.014 0 0.030 0 0.047 0 9.409 0 17.036 7.627 17.036 17.036 0 0.016 0 0.033 0 0.049v-0.003 136.518c0 0.014 0 0.030 0 0.047 0 9.409-7.627 17.036-17.036 17.036-0.033 0-0.065 0-0.098 0h0.005zM255.953 72.611h-34.118v102.4h34.118zM85.318 209.129h-68.236c-0.014 0-0.030 0-0.047 0-9.409 0-17.036-7.627-17.036-17.036 0-0.016 0-0.033 0-0.049v0.003-136.518c0-0.014 0-0.030 0-0.047 0-9.409 7.627-17.036 17.036-17.036 0.016 0 0.033 0 0.049 0h68.233c0.014 0 0.030 0 0.047 0 9.409 0 17.036 7.627 17.036 17.036 0 0.016 0 0.033 0 0.049v-0.003 136.518c0 0.014 0 0.030 0 0.047 0 9.409-7.627 17.036-17.036 17.036-0.016 0-0.033 0-0.049 0h0.003zM68.236 72.611h-34.118v102.4h34.118z" />
<glyph unicode="&#xe908;" glyph-name="cart" horiz-adv-x="820" d="M819.394 74.851l-58.603 660.239c-1.321 14.459-13.368 25.703-28.049 25.743h-120.637c-1.548 110.538-91.518 199.551-202.278 199.551s-200.73-89.013-202.276-199.405l-0.002-0.146h-120.633c-0.018 0-0.040 0-0.061 0-14.688 0-26.743-11.273-27.985-25.638l-0.007-0.105-58.64-660.239c0-0.82-0.224-1.676-0.224-2.496 5.078-76.452 68.335-136.542 145.627-136.542 2.845 0 5.672 0.081 8.477 0.242l-0.388-0.018h512.186c2.418-0.143 5.245-0.224 8.091-0.224 77.278 0 140.527 60.069 145.601 136.062l0.024 0.442c0.004 0.112 0.007 0.244 0.007 0.376 0 0.764-0.084 1.509-0.243 2.225l0.013-0.068zM409.809 903.446c79.373-0.063 143.909-63.502 145.74-142.443l0.003-0.17h-291.486c1.834 79.112 66.37 142.55 145.737 142.613h0.006zM665.902-7.484h-512.186c-2.291-0.207-4.957-0.325-7.649-0.325-45.825 0-83.671 34.159-89.464 78.403l-0.049 0.456 56.107 633.043h94.666v-85.687c0-15.617 12.66-28.277 28.277-28.277s28.277 12.66 28.277 28.277v85.687h291.709v-85.687c0-15.617 12.66-28.277 28.277-28.277s28.277 12.66 28.277 28.277v0 85.687h94.591l56.33-633.005c-5.898-44.705-43.766-78.85-89.61-78.85-2.658 0-5.29 0.115-7.89 0.34l0.338-0.024z" />
<glyph unicode="&#xe909;" glyph-name="commercial-delivery" horiz-adv-x="1099" d="M1031.891 518.774h-55.39c-6.571 23.072-27.356 39.723-52.067 39.957h-59.163v144.844c0.003 0.108 0.004 0.236 0.004 0.364 0 5.548-2.956 10.405-7.378 13.083l-0.068 0.038-417.252 240.991c-2.218 1.314-4.889 2.090-7.742 2.090s-5.523-0.776-7.813-2.129l0.072 0.039-417.352-241.091c-4.662-2.739-7.742-7.729-7.742-13.438 0-0.017 0-0.034 0-0.050v0.003-481.982c0.004-5.734 3.104-10.743 7.718-13.446l0.074-0.040 417.402-240.991c2.234-1.316 4.922-2.094 7.791-2.098h0.001c2.937 0.005 5.691 0.783 8.072 2.14l-0.081-0.042 219.764 126.714v-91.602c0-0.045 0-0.099 0-0.152 0-36.412 29.517-65.929 65.929-65.929 0.193 0 0.386 0.001 0.579 0.002h304.643c0.193-0.002 0.421-0.003 0.65-0.003 36.536 0 66.167 29.562 66.278 66.071v449.528c-0.028 36.992-29.952 66.986-66.915 67.128h-0.014zM924.956 527.664c12.496 0 22.626-10.13 22.626-22.626v0-1.498c0-12.496-10.13-22.626-22.626-22.626v0h-90.453c-12.496 0-22.626 10.13-22.626 22.626v0 1.498c0 12.496 10.13 22.626 22.626 22.626v0zM432.985 926.436l173.464-99.893-386.235-223.010-173.414 99.893zM418.001 7.423l-386.884 223.060v446.021l387.034-223.010zM432.985 480.465l-181.655 104.887 386.235 223.010 181.655-104.887zM660.64 451.646v-322.004l-211.123-122.169v446.021l384.587 223.010v-117.724h0.499c-24.738-0.234-45.523-16.885-52-39.572l-0.094-0.385h-55.39c-36.758-0.198-66.48-30.042-66.48-66.827 0-0.123 0-0.246 0.001-0.37v0.019zM1067.703 2.129c0-0.003 0-0.006 0-0.009 0-19.309-15.653-34.962-34.962-34.962-0.281 0-0.561 0.003-0.841 0.010l0.041-0.001h-304.673c-0.119-0.001-0.259-0.002-0.4-0.002-19.309 0-34.962 15.653-34.962 34.962 0 0.001 0 0.002 0 0.002v0 449.517c-0.001 0.104-0.002 0.228-0.002 0.351 0 19.591 15.797 35.492 35.348 35.66h56.006c6.834-22.063 27.057-37.812 50.958-37.812 0.189 0 0.377 0.001 0.566 0.003h89.874c0.16-0.002 0.348-0.003 0.537-0.003 23.901 0 44.123 15.749 50.857 37.435l0.101 0.377h55.74c19.781-0.142 35.762-16.21 35.762-36.010 0 0 0-0.001 0-0.001v0zM745 294.115h16.283c8.606 0 15.583 6.977 15.583 15.583s-6.977 15.583-15.583 15.583v0h-0.599v42.255h42.954c1.951-6.164 7.62-10.554 14.314-10.554 0.236 0 0.47 0.005 0.703 0.016l-0.033-0.001c0 0 0 0 0 0 8.599 0 15.576 6.942 15.633 15.528v10.494c-0.085 8.635-7.090 15.605-15.73 15.633h-73.374c-8.536-0.056-15.434-6.989-15.434-15.533 0-0.035 0-0.070 0-0.106v0.005-73.321c0-0.030 0-0.065 0-0.1 0-8.524 6.91-15.433 15.433-15.433 0 0 0 0 0 0v0zM745.15 151.768h73.421c8.606 0 15.583 6.977 15.583 15.583v0 73.421c0 8.606-6.977 15.583-15.583 15.583v0h-73.421c-8.606 0-15.583-6.977-15.583-15.583v0-73.421c0-8.606 6.977-15.583 15.583-15.583v0zM760.733 225.189h42.255v-42.255h-42.255zM761.332 40.538h-0.599v42.255h42.105c0-8.648 7.010-15.658 15.658-15.658s15.658 7.010 15.658 15.658v0 14.984c-0.024 8.771-7 15.905-15.708 16.182l-0.025 0.001h-73.371c-8.588-0.304-15.435-7.339-15.435-15.973 0-0.074 0-0.147 0.001-0.22v0.011-73.371c0-0.002 0-0.004 0-0.007 0-8.275 6.709-14.984 14.984-14.984 0.158 0 0.316 0.002 0.472 0.007l-0.023-0.001h16.283c8.606 0 15.583 6.977 15.583 15.583s-6.977 15.583-15.583 15.583v0zM854.282 379.574l-45.601-45.601-13.885 13.885c-2.779 2.608-6.529 4.211-10.654 4.211-8.606 0-15.583-6.977-15.583-15.583 0-4.125 1.602-7.875 4.219-10.662l24.965-24.965c2.819-2.817 6.713-4.558 11.013-4.558s8.194 1.742 11.013 4.559v0l56.589 56.589c2.608 2.779 4.211 6.529 4.211 10.654 0 8.606-6.977 15.583-15.583 15.583-4.125 0-7.875-1.602-10.662-4.219l0.008 0.008zM854.282 92.082l-45.601-45.601-13.885 13.885c-2.779 2.608-6.529 4.211-10.654 4.211-8.606 0-15.583-6.977-15.583-15.583 0-4.125 1.602-7.875 4.219-10.662l24.965-24.965c2.819-2.817 6.713-4.558 11.013-4.558s8.194 1.742 11.013 4.559v0l56.589 56.589c2.608 2.779 4.211 6.529 4.211 10.654 0 8.606-6.977 15.583-15.583 15.583-4.125 0-7.875-1.602-10.662-4.219l0.008 0.008zM1014.011 360.844h-97.945c-8.606 0-15.583-6.977-15.583-15.583s6.977-15.583 15.583-15.583v0h97.795c8.606 0 15.583 6.977 15.583 15.583s-6.977 15.583-15.583 15.583v0zM1014.011 218.497h-97.945c-8.606 0-15.583-6.977-15.583-15.583s6.977-15.583 15.583-15.583v0h97.795c8.606 0 15.583 6.977 15.583 15.583s-6.977 15.583-15.583 15.583v0zM1014.011 76.149h-97.945c-8.218-0.48-14.701-7.262-14.701-15.558s6.483-15.078 14.659-15.556l0.042-0.002h97.795c0.264-0.016 0.572-0.025 0.882-0.025 8.606 0 15.583 6.977 15.583 15.583s-6.977 15.583-15.583 15.583c-0.31 0-0.618-0.009-0.924-0.027l0.042 0.002z" />
<glyph unicode="&#xe90a;" glyph-name="delivery-truck" horiz-adv-x="1502" d="M1228.008 211.288c-0.035 0-0.077 0-0.119 0-38.161 0-72.721-15.415-97.795-40.357l0.006 0.006c-25.286-24.708-40.965-59.152-40.965-97.259s15.68-72.551 40.939-97.234l0.026-0.025c25.129-24.909 59.716-40.313 97.9-40.351h0.007c76.019 0 137.644 61.625 137.644 137.644s-61.625 137.644-137.644 137.644v0zM1228.008-2.825c-42.233 0-76.469 34.236-76.469 76.469s34.236 76.469 76.469 76.469v0c42.233 0 76.469-34.236 76.469-76.469s-34.236-76.469-76.469-76.469v0zM1263.511 669.76c-5.283 4.909-12.386 7.921-20.194 7.921-0.102 0-0.203-0.001-0.305-0.002h-157.019c-16.877-0.039-30.549-13.71-30.588-30.584v-250.781c0.039-16.877 13.71-30.549 30.584-30.588h249.006c16.877 0.039 30.549 13.71 30.588 30.584v167.894c-0.036 8.959-3.917 17.004-10.078 22.576l-0.026 0.024zM1304.477 426.903h-187.758v189.943h114.362l73.396-66.091zM481.139 211.288c-0.035 0-0.077 0-0.119 0-38.161 0-72.721-15.415-97.795-40.357l0.006 0.006c-25.286-24.708-40.965-59.152-40.965-97.259s15.68-72.551 40.939-97.234l0.026-0.025c25.129-24.909 59.716-40.313 97.9-40.351h0.007c76.019 0 137.644 61.625 137.644 137.644s-61.625 137.644-137.644 137.644v0zM481.139-2.825c-42.233 0-76.469 34.236-76.469 76.469s34.236 76.469 76.469 76.469v0c42.233 0 76.469-34.236 76.469-76.469s-34.236-76.469-76.469-76.469v0zM277.131 173.668h-61.448v81.385c0 16.968-13.756 30.724-30.724 30.724s-30.724-13.756-30.724-30.724v0-111.972c0.039-16.877 13.71-30.549 30.584-30.588h92.313c16.968 0 30.724 13.756 30.724 30.724s-13.756 30.724-30.724 30.724v0zM432.186 340.397c-0.039 16.877-13.71 30.549-30.584 30.588h-371.015c-16.968 0-30.724-13.756-30.724-30.724s13.756-30.724 30.724-30.724v0h371.011c0.041 0 0.090 0 0.138 0 16.818 0 30.451 13.633 30.451 30.451 0 0.12-0.001 0.24-0.002 0.36v-0.018zM92.65 450.799l371.011-2.185c0.001 0 0.003 0 0.005 0 16.852 0 30.549 13.507 30.855 30.286v0.029c0.007 0.244 0.011 0.531 0.011 0.819 0 16.722-13.54 30.282-30.254 30.314h-0.003l-371.011 2.117c-16.968 0-30.724-13.756-30.724-30.724s13.756-30.724 30.724-30.724v0zM155.054 589.672h371.011c16.968 0 30.724 13.756 30.724 30.724s-13.756 30.724-30.724 30.724v0h-371.011c-16.968 0-30.724-13.756-30.724-30.724s13.756-30.724 30.724-30.724v0zM1490.733 630.638v0l-218.96 181.34c-5.153 4.253-11.824 6.832-19.098 6.832-0.175 0-0.349-0.001-0.524-0.004h-257.51v110.129c-0.039 16.877-13.71 30.549-30.584 30.588h-779.031c-16.877-0.039-30.549-13.71-30.588-30.584v-223.88c0-16.968 13.756-30.724 30.724-30.724s30.724 13.756 30.724 30.724v0 193.289h717.92v-725.225h-251.050c-16.968 0-30.724-13.756-30.724-30.724s13.756-30.724 30.724-30.724v0h373.468c16.968 0 30.724 13.756 30.724 30.724s-13.756 30.724-30.724 30.724v0h-61.448v584.509h246.544l199.434-165.159-2.117-418.735h-31.817c-16.968 0-30.724-13.756-30.724-30.724s13.756-30.724 30.724-30.724v0h62.063c0.061 0 0.133-0.001 0.205-0.001 16.732 0 30.305 13.525 30.382 30.239v0.007l2.594 464.48c-0.207 9.567-4.543 18.081-11.29 23.86l-0.044 0.037z" />
<glyph unicode="&#xe90b;" glyph-name="dollar-coin" horiz-adv-x="1001" d="M870.273 256.557l-330.794-57.551-93.947 93.947c-3.017 3.035-7.194 4.913-11.81 4.913-0.006 0-0.013 0-0.019 0h-417.006c-9.221 0-16.697-7.475-16.697-16.697v0-266.919c0-9.221 7.475-16.697 16.697-16.697v0h233.526c9.221 0 16.697 7.475 16.697 16.697v0 16.697h46.086l178.34-89.17c7.101-3.648 15.493-5.787 24.386-5.787 10.131 0 19.613 2.775 27.728 7.607l-0.249-0.138 363.959 212.279c16.131 9.684 26.759 27.083 26.759 46.965 0 30.151-24.443 54.594-54.594 54.594-3.168 0-6.273-0.27-9.294-0.788l0.324 0.046zM33.166 264.519h133.664v-233.526h-133.482zM233.344 30.993h-33.166v233.526h33.348zM890.108 184.584l-363.959-212.279c-3.055-1.813-6.735-2.885-10.665-2.885-3.46 0-6.726 0.831-9.609 2.303l0.12-0.055-181.98 90.99c-2.167 1.119-4.731 1.774-7.447 1.774-0.005 0-0.010 0-0.015 0h-50.044v200.178h159.915l131.435-131.435c5.523-5.517 8.939-13.142 8.939-21.565 0-16.835-13.647-30.482-30.482-30.482-0.008 0-0.015 0-0.023 0h0.001c-8.448 0.024-16.079 3.501-21.56 9.094l-86.445 86.445-23.566-23.566 86.44-86.44c11.583-11.645 27.618-18.852 45.336-18.852 35.312 0 63.938 28.626 63.938 63.938 0 17.594-7.106 33.528-18.605 45.088l-13.645 13.645 307.682 53.502c1.098 0.202 2.361 0.317 3.651 0.317 11.684 0 21.155-9.471 21.155-21.155 0-7.766-4.185-14.555-10.422-18.234l-0.099-0.054zM984.237 898.4h-233.571c-9.221 0-16.697-7.475-16.697-16.697v0-16.697h-46.086l-178.34 89.17c-7.101 3.648-15.493 5.787-24.386 5.787-10.131 0-19.613-2.775-27.728-7.607l0.249 0.138-363.959-212.234c-16.206-9.667-26.891-27.107-26.891-47.043 0-30.009 24.212-54.363 54.167-54.592h0.022c3.331 0.006 6.589 0.303 9.754 0.869l-0.337-0.050 330.839 57.551 93.947-93.947c3.010-3.035 7.182-4.914 11.792-4.914 0.061 0 0.121 0 0.182 0.001h417.043c9.221 0 16.697 7.475 16.697 16.697v0 266.873c0 9.221-7.475 16.697-16.697 16.697v0zM442.848 762.916c-5.523 5.517-8.939 13.142-8.939 21.565 0 16.835 13.647 30.482 30.482 30.482 0.008 0 0.015 0 0.023 0h-0.001c8.448-0.024 16.079-3.501 21.56-9.094l86.445-86.445 23.566 23.566-86.44 86.44c-11.556 11.556-27.52 18.703-45.154 18.703-35.267 0-63.857-28.59-63.857-63.857 0-17.634 7.147-33.598 18.703-45.154l13.648-13.648-308.001-53.184c-1.098-0.202-2.361-0.317-3.651-0.317-11.684 0-21.155 9.471-21.155 21.155 0 7.766 4.185 14.555 10.422 18.234l0.099 0.054 363.959 212.279c3.053 1.817 6.733 2.891 10.663 2.891 3.461 0 6.728-0.833 9.61-2.309l-0.119 0.055 181.98-90.99c2.167-1.119 4.731-1.774 7.447-1.774 0.005 0 0.010 0 0.015 0h50.044v-200.178h-160.097zM767.363 865.007h33.348v-233.526h-33.348zM967.541 631.481h-133.437v233.526h133.437zM83.392 448c0.28-27.425 22.577-49.549 50.042-49.549 21.468 0 39.78 13.518 46.885 32.507l0.113 0.345h187.712c1.576-12.399 4.627-23.657 9.011-34.222l-0.322 0.874h-109.961c-0.005 0-0.012 0-0.018 0-4.594 0-8.753-1.86-11.765-4.868v0l-28.48-28.48h-26.433v-33.393h33.348c0.005 0 0.012 0 0.018 0 4.594 0 8.753 1.86 11.765 4.868v0l28.48 28.48h122.836c24.6-30.605 62.033-50.027 104.001-50.027s79.402 19.422 103.8 49.768l0.201 0.258h122.836l28.48-28.48c3.012-3.008 7.172-4.868 11.765-4.868 0.006 0 0.013 0 0.019 0h33.347v33.348h-26.478l-28.48 28.48c-3.012 3.008-7.172 4.868-11.765 4.868-0.006 0-0.013 0-0.019 0h-110.279c4.051 9.688 7.101 20.945 8.619 32.682l0.070 0.666h187.667c7.075-19.607 25.523-33.371 47.185-33.371 27.639 0 50.044 22.406 50.044 50.044s-22.406 50.044-50.044 50.044c-21.662 0-40.11-13.763-47.075-33.022l-0.11-0.349h-187.667c-1.579 12.4-4.63 23.658-9.011 34.224l0.322-0.876h109.916c0.005 0 0.012 0 0.018 0 4.594 0 8.753 1.86 11.765 4.868v0l28.48 28.48h26.478v33.348h-33.348c-0.005 0-0.012 0-0.018 0-4.594 0-8.753-1.86-11.765-4.868v0l-28.48-28.48h-122.836c-24.6 30.605-62.033 50.027-104.001 50.027s-79.402-19.422-103.8-49.768l-0.201-0.258h-122.836l-28.48 28.48c-3.012 3.008-7.172 4.868-11.765 4.868-0.006 0-0.013 0-0.019 0h-32.983v-33.257h26.478l28.48-28.48c3.012-3.008 7.172-4.868 11.765-4.868 0.006 0 0.013 0 0.019 0h109.915c-4.051-9.688-7.101-20.945-8.619-32.682l-0.070-0.666h-187.712c-7.219 19.334-25.53 32.852-46.999 32.852-27.465 0-49.762-22.124-50.042-49.523v-0.026zM867.406 464.697c9.221 0 16.697-7.475 16.697-16.697s-7.475-16.697-16.697-16.697c-9.221 0-16.697 7.475-16.697 16.697v0c0.026 9.202 7.491 16.651 16.697 16.651 0 0 0 0 0 0v0zM600.488 448c-0.050-49.338-35.792-90.314-82.794-98.501l-0.598-0.086v18.198c19.334 7.219 32.852 25.53 32.852 46.999 0 27.465-22.124 49.762-49.523 50.042h-0.026c-9.221 0-16.697 7.475-16.697 16.697s7.475 16.697 16.697 16.697c9.221 0 16.697-7.475 16.697-16.697v0h33.348c-0.080 21.581-13.809 39.935-32.999 46.886l-0.348 0.11v18.198c47.605-8.251 83.36-49.21 83.438-98.534v-0.008zM483.748 546.588v-18.198c-19.334-7.219-32.852-25.53-32.852-46.999 0-27.465 22.124-49.762 49.523-50.042h0.026c9.221 0 16.697-7.475 16.697-16.697s-7.475-16.697-16.697-16.697c-9.221 0-16.697 7.475-16.697 16.697v0h-33.348c0.060-21.599 13.795-39.975 32.999-46.932l0.348-0.11v-18.198c-47.355 8.521-82.818 49.413-82.818 98.588s35.463 90.067 82.209 98.496l0.609 0.091zM150.133 448c0-9.221-7.475-16.697-16.697-16.697s-16.697 7.475-16.697 16.697c0 9.221 7.475 16.697 16.697 16.697v0c9.221 0 16.697-7.475 16.697-16.697v0zM133.437 564.785h33.348v-33.348h-33.348zM133.437 364.608h33.348v-33.348h-33.348zM834.059 564.785h33.348v-33.348h-33.348zM834.059 364.608h33.348v-33.348h-33.348z" />
<glyph unicode="&#xe90c;" glyph-name="editing" d="M830.045 516.003c-16.581 0-30.022-13.441-30.022-30.022v0-440.087c-0.026-27.598-22.392-49.963-49.987-49.99h-640.049c-27.598 0.026-49.963 22.392-49.99 49.987v640.142c0.026 27.598 22.392 49.963 49.987 49.99h439.997c16.064 0.653 28.84 13.834 28.84 29.999s-12.776 29.346-28.781 29.997l-0.059 0.002h-439.994c-60.712-0.079-109.908-49.275-109.987-109.979v-640.148c0.079-60.712 49.275-109.908 109.979-109.987h640.008c60.732 0.053 109.954 49.258 110.033 109.979v440.142c-0.026 16.544-13.431 29.949-29.973 29.975h-0.003zM1003.567 882.967l-56.739 56.599c-12.679 12.646-30.177 20.466-49.501 20.466s-36.822-7.82-49.502-20.467l-452.56-452.56c-4.054-4.064-6.952-9.282-8.158-15.119l-0.034-0.195-28.3-141.405c-0.365-1.756-0.574-3.774-0.574-5.841 0-16.581 13.441-30.022 30.022-30.022 2.081 0 4.112 0.212 6.074 0.615l-0.194-0.033 141.405 28.3c6.033 1.234 11.253 4.134 15.314 8.192l452.561 452.561c12.646 12.679 20.466 30.177 20.466 49.501s-7.82 36.822-20.467 49.502l0.001-0.001zM514.839 380.276l-88.436-17.687 17.687 88.436 368.361 368.361 70.703-70.703zM960.977 826.415l-35.375-35.375-70.703 70.703 35.375 35.375c1.801 1.755 4.265 2.838 6.982 2.838s5.181-1.083 6.984-2.84l56.551-56.551c1.909-1.826 3.096-4.393 3.096-7.238 0-2.683-1.056-5.119-2.774-6.916l0.004 0.004z" />
<glyph unicode="&#xe90d;" glyph-name="email" horiz-adv-x="1336" d="M1268.844 960h-1202.063c-36.882 0-66.781-29.899-66.781-66.781v0-890.437c0-36.882 29.899-66.781 66.781-66.781v0h1202.063c36.882 0 66.781 29.899 66.781 66.781v0 890.437c0 36.882-29.899 66.781-66.781 66.781v0zM1291.125 2.781c0-12.305-9.975-22.281-22.281-22.281v0h-1202.063c-12.305 0-22.281 9.975-22.281 22.281v0 890.437c0 12.305 9.975 22.281 22.281 22.281v0h1202.063c12.305 0 22.281-9.975 22.281-22.281v0-890.437zM1226.287 870.877c-0.599 0.057-1.295 0.090-1.998 0.090-5.449 0-10.44-1.962-14.306-5.217l0.034 0.028-513.548-431.407c-7.685-6.502-17.709-10.454-28.655-10.454s-20.97 3.952-28.721 10.508l0.066-0.054-513.548 431.407c-3.802 3.113-8.713 5-14.065 5-12.305 0-22.281-9.975-22.281-22.281 0-6.712 2.968-12.731 7.663-16.816l0.027-0.023 513.548-431.407c15.362-12.999 35.398-20.901 57.28-20.901s41.918 7.902 57.411 21.009l-0.131-0.108 513.548 431.407c4.866 4.114 7.935 10.222 7.935 17.047 0 11.529-8.757 21.013-19.982 22.164l-0.095 0.008zM428.129 403.287c-1.46 0.341-3.136 0.536-4.858 0.536-6.603 0-12.535-2.872-16.615-7.435l-0.019-0.021-311.626-333.906c-4.196-4.057-6.801-9.737-6.801-16.026 0-12.305 9.975-22.281 22.281-22.281 6.833 0 12.947 3.076 17.034 7.918l0.027 0.033 311.626 333.906c3.908 4.010 6.318 9.495 6.318 15.544 0 10.563-7.351 19.41-17.217 21.703l-0.15 0.029zM928.928 396.366c-4.114 4.876-10.229 7.951-17.062 7.951-12.305 0-22.281-9.975-22.281-22.281 0-6.289 2.605-11.969 6.795-16.020l0.006-0.006 311.626-333.906c4.003-3.87 9.462-6.255 15.479-6.255 12.305 0 22.281 9.975 22.281 22.281 0 5.473-1.973 10.484-5.246 14.363l0.027-0.033z" />
<glyph unicode="&#xe90e;" glyph-name="facebook" horiz-adv-x="476" d="M104.783 443.935v-495.156c0-7.165 5.808-12.974 12.974-12.974v0h183.792c7.165 0 12.974 5.808 12.974 12.974v0 503.264h133.303c6.721 0.041 12.228 5.187 12.84 11.755l0.004 0.051 12.844 151.552c0.025 0.304 0.040 0.659 0.040 1.016 0 7.165-5.808 12.974-12.974 12.974-0.014 0-0.028 0-0.042 0h-146.080v107.529c0 0.013 0 0.028 0 0.043 0 25.197 20.426 45.624 45.624 45.624 0.008 0 0.015 0 0.023 0h102.706c7.165 0 12.974 5.808 12.974 12.974v0 151.509c0 7.165-5.808 12.974-12.974 12.974v0h-173.586c-101.847-0.037-184.397-82.609-184.397-184.462 0-0.008 0-0.015 0-0.023v0.001-146.125h-92.069c0 0 0 0-0.001 0-7.093 0-12.844-5.75-12.844-12.844 0-0.046 0-0.091 0.001-0.137v0.007-151.596c0-0.013 0-0.028 0-0.043 0-7.081 5.741-12.822 12.822-12.822 0.008 0 0.015 0 0.023 0h91.916z" />
<glyph unicode="&#xe90f;" glyph-name="flower" horiz-adv-x="1526" d="M1520.5 279.368c-2.493 3.039-5.689 5.411-9.345 6.88l-0.156 0.055c-24.181 9.725-52.993 18.301-82.743 24.282l-3.255 0.546c-1.462 0.331-3.142 0.52-4.866 0.52-10.709 0-19.71-7.31-22.285-17.213l-0.035-0.16c-0.348-1.477-0.547-3.172-0.547-4.914 0-10.834 7.715-19.867 17.951-21.902l0.142-0.024c22.069-4.307 40.696-9.246 58.839-15.249l-3.357 0.962c-70.311-106.781-172.043-187.854-291.929-230.784l-4.071-1.272c-64.608-25.080-139.386-39.612-217.558-39.612-20.367 0-40.504 0.986-60.365 2.914l2.522-0.198c130.129 40.299 241.376 109.324 330.722 199.99l0.093 0.094c124.043 119.437 206.422 281.376 223.643 462.312l0.229 2.979c0.059 0.623 0.093 1.348 0.093 2.080 0 4.348-1.194 8.417-3.273 11.897l0.059-0.106c-3.977 6.523-11.053 10.813-19.132 10.813-0.589 0-1.173-0.023-1.751-0.068l0.077 0.005c-93.669-6.768-180.025-32.026-257.45-72.13l3.687 1.737c1.279 15.32 2.009 33.158 2.009 51.166 0 59.914-8.074 117.942-23.192 173.055l1.071-4.58c-1.054 3.956-3.005 7.368-5.628 10.136l0.010-0.011c-4.076 4.195-9.771 6.798-16.074 6.798-3.057 0-5.971-0.612-8.625-1.721l0.148 0.055c-80.798-34.772-149.818-81.944-208.087-139.913l0.027 0.027c-29.084 97.928-76.526 182.626-138.774 254.089l0.691-0.811c-2.493 3.039-5.689 5.411-9.345 6.88l-0.156 0.055c-2.25 0.832-4.848 1.314-7.559 1.314-6.634 0-12.594-2.883-16.695-7.465l-0.019-0.021c-61.913-71.058-109.584-156.279-137.483-250.016l-1.223-4.787c-58.249 57.906-127.268 105.054-203.777 138.166l-4.283 1.65c-2.714 1.208-5.881 1.911-9.213 1.911-0.785 0-1.562-0.039-2.327-0.115l0.097 0.008c-9.166-1.059-16.579-7.517-19.033-16.071l-0.039-0.158c-14.138-50.685-22.264-108.888-22.264-168.989 0-18.023 0.731-35.875 2.164-53.528l-0.152 2.321c-73.634 38.203-159.852 63.339-251.21 69.923l-2.137 0.124c-0.397 0.025-0.862 0.039-1.329 0.039-8.883 0-16.559-5.171-20.181-12.667l-0.058-0.134c-1.351-2.847-2.141-6.187-2.141-9.71 0-0.585 0.022-1.166 0.065-1.74l-0.005 0.077c17.409-183.968 99.796-345.963 223.638-465.205l0.234-0.224c89.457-90.769 200.728-159.795 325.326-198.593l5.559-1.491c-17.356-1.733-37.512-2.722-57.899-2.722-78.177 0-152.96 14.534-221.794 41.047l4.221-1.43c-123.95 44.179-225.682 125.229-294.644 229.799l-1.355 2.187c14.532 4.885 32.888 9.683 51.641 13.377l3.009 0.494c10.726 2.036 18.726 11.336 18.726 22.505 0 1.088-0.076 2.159-0.223 3.207l0.014-0.121c-1.737 10.752-10.951 18.865-22.061 18.865-1.519 0-3.002-0.152-4.436-0.441l0.143 0.024c-33.353-6.453-62.527-15.037-90.493-26.024l3.455 1.196c-3.811-1.527-7.007-3.898-9.469-6.895l-0.032-0.041c-3.276-3.87-5.268-8.918-5.268-14.431 0-3.857 0.975-7.486 2.691-10.654l-0.059 0.118c74.612-127.908 190.25-224.949 328.574-274.131l4.322-1.34c69.281-26.611 149.415-42.195 233.141-42.582l0.163-0.001c0.665-0.003 1.451-0.004 2.237-0.004 53.146 0 104.582 7.319 153.356 21.003l-3.987-0.955c11.958 3.512 25.702 5.559 39.915 5.618h4.956c14.246-0.059 27.99-2.107 41.001-5.879l-1.053 0.261c44.778-12.729 96.205-20.048 149.341-20.048 0.796 0 1.593 0.002 2.388 0.005h-0.123c83.89 0.389 164.024 15.974 237.952 44.138l-4.648-1.555c142.645 50.522 258.284 147.563 331.314 272.542l1.581 2.929c1.819 3.166 2.891 6.962 2.891 11.008 0 5.616-2.067 10.749-5.481 14.681l0.023-0.028zM406.132 785.993c73.267-35.86 135.646-82.371 188.032-138.349l0.331-0.357c-13.444-56.159-21.153-120.637-21.153-186.915 0-0.241 0-0.481 0-0.722v0.037q0-11.513 0-23.095-6.103 6.38-12.345 12.622c-48.088 48.457-102.087 90.936-160.855 126.297l-3.72 2.076c-2.877 22.602-4.519 48.753-4.519 75.287 0 47.26 5.208 93.303 15.082 137.588l-0.785-4.191zM327.208 215.355c-110.285 106.565-185.8 248.486-208.251 407.461l-0.432 3.734c162.687-22.819 304.609-98.264 411.006-208.279l0.189-0.196c110.285-106.565 185.8-248.486 208.251-407.461l0.432-3.734c-162.687 22.824-304.607 98.268-411.007 208.28l-0.188 0.195zM763.093 113.267c-30.673 103.341-79.104 193.016-142.337 270.081l1.065-1.338c-2.497 25.661-3.745 51.876-3.745 77.884-0.069 3.706-0.109 8.076-0.109 12.456 0 162.65 54.561 312.556 146.379 432.414l-1.253-1.703c81.997-105.622 134.365-237.915 142.644-382.023l0.085-1.847c0.265-12.128 10.16-21.859 22.327-21.859 12.333 0 22.332 9.998 22.332 22.332 0 0.86-0.049 1.708-0.143 2.542l0.009-0.102c-3.419 46.49-10.065 89.285-19.839 130.873l1.114-5.621c52.697 56.164 115.027 102.536 184.478 136.629l3.747 1.662c9.089-40.094 14.297-86.139 14.297-133.4 0-26.533-1.641-52.682-4.828-78.353l0.311 3.069c-62.824-37.16-117.098-79.381-165.428-127.561l0.021 0.021c-91.897-90.72-161.419-203.885-199.686-330.611l-1.438-5.544zM996.051 418.074c106.565 110.285 248.486 185.8 407.461 208.251l3.734 0.432c-22.878-162.711-98.395-304.633-208.483-411.002l-0.201-0.193c-106.565-110.285-248.486-185.8-407.461-208.251l-3.734-0.432c22.884 162.709 98.399 304.63 208.483 411.002l0.201 0.193z" />
<glyph unicode="&#xe910;" glyph-name="information" d="M512 808.308c-0.014 0-0.030 0-0.047 0-41.901 0-75.869-33.968-75.869-75.869s33.968-75.869 75.869-75.869c41.901 0 75.869 33.968 75.869 75.869v0c-0.053 41.864-33.962 75.79-75.815 75.869h-0.008zM512 542.813c-31.413 0-56.879-25.465-56.879-56.879v0-341.318c0-31.413 25.465-56.879 56.879-56.879s56.879 25.465 56.879 56.879v341.318c0 31.413-25.465 56.879-56.879 56.879v0z" />
<glyph unicode="&#xe911;" glyph-name="instgram" d="M780.893 754.595c-33.135 0-59.997-26.862-59.997-59.997s26.862-59.997 59.997-59.997c33.119 0 59.971 26.835 59.997 59.948v0.003c0 33.145-26.856 60.017-59.995 60.044h-0.003zM514.001 700.183c-0.014 0-0.030 0-0.047 0-139.277 0-252.183-112.906-252.183-252.183s112.906-252.183 252.183-252.183c139.277 0 252.183 112.906 252.183 252.183v0c-0.159 139.197-112.944 251.998-252.119 252.183h-0.018zM514.001 286.441c-89.227 0-161.559 72.333-161.559 161.559s72.333 161.559 161.559 161.559c89.227 0 161.559-72.333 161.559-161.559v0c-0.212-89.104-72.441-161.267-161.549-161.373h-0.010zM716.428-64h-408.809c-169.819 0.185-307.434 137.8-307.619 307.601v408.827c0.212 169.798 137.816 307.387 307.601 307.572h408.827c169.782-0.212 307.36-137.79 307.572-307.552v-408.83c-0.212-169.792-137.784-307.381-307.549-307.619h-0.023zM307.619 863.651c-116.602-0.132-211.091-94.621-211.223-211.211v-408.822c0.106-116.622 94.605-211.137 211.21-211.27h408.822c116.628 0.132 211.137 94.642 211.27 211.257v408.822c-0.159 116.608-94.658 211.091-211.257 211.223h-0.013z" />
<glyph unicode="&#xe912;" glyph-name="location" horiz-adv-x="900" d="M620.962 283.442c108.982 171.001 95.278 149.646 98.428 154.105 37.912 52.756 60.628 118.65 60.628 189.85 0 0.219 0 0.439-0.001 0.658v-0.034c0 0.078 0 0.17 0 0.262 0 182.262-147.753 330.015-330.015 330.015s-330.015-147.753-330.015-330.015c0-72.545 23.408-139.623 63.082-194.093l-0.655 0.944 96.669-151.692c-103.378-15.914-279.083-63.246-279.083-167.442 0-38.005 24.791-92.128 142.937-134.305 86.928-29.063 187.017-45.832 291.022-45.832 5.641 0 11.27 0.049 16.888 0.148l-0.845-0.012c216.042 0 450.002 60.955 450.002 180.001 0 104.237-175.501 151.528-279.042 167.442zM232.324 468.107l-1.023 1.514c-32.047 43.847-51.275 98.829-51.275 158.302 0 149.118 120.884 270.001 270.001 270.001s270.001-120.884 270.001-270.001c0-58.166-18.393-112.035-49.679-156.111l0.563 0.836c-2.905-3.805 12.273 19.596-220.91-345.847zM450.002-3.986c-236.006 0-389.988 69.546-389.988 119.987 0 34.037 79.119 90 254.497 111.805l110.21-172.923c5.407-8.406 14.714-13.894 25.302-13.894s19.895 5.488 25.231 13.775l0.072 0.119 110.169 172.842c175.378-21.805 254.497-77.728 254.497-111.805 0-50.114-152.714-119.905-389.988-119.905zM450.002 777.995c-82.851 0-150.014-67.164-150.014-150.014s67.164-150.014 150.014-150.014c82.851 0 150.014 67.164 150.014 150.014v0c-0.093 82.813-67.201 149.921-150.005 150.014h-0.009zM450.002 537.98c-49.706 0-90 40.295-90 90s40.295 90 90 90c49.706 0 90-40.295 90-90v0c0-49.706-40.295-90-90-90v0z" />
<glyph unicode="&#xe913;" glyph-name="map-in" d="M631.994 439.994c-11.054 0-20.015-8.961-20.015-20.015s8.961-20.015 20.015-20.015c11.054 0 20.015 8.961 20.015 20.015v0c0 11.054-8.961 20.015-20.015 20.015v0zM204.335 220.439l-200.006-251.857c-2.764-3.404-4.438-7.79-4.438-12.567 0-11.054 8.961-20.015 20.015-20.015 0.022 0 0.044 0 0.066 0h984.014c0.032 0 0.071 0 0.109 0 11.054 0 20.015 8.961 20.015 20.015 0 4.777-1.674 9.164-4.467 12.605l0.029-0.037-200.145 251.997c-3.698 4.639-9.347 7.586-15.686 7.587h-175.058l149.551 234.589c33.592 49.84 53.62 111.24 53.62 177.319 0 176.731-143.269 320-320 320s-320-143.269-320-320c0-66.078 20.028-127.478 54.345-178.461l-0.725 1.143 149.551-234.589h-175.151c-6.338-0.001-11.988-2.948-15.655-7.546l-0.031-0.040zM129.862 62.185h121.018l-68.561-86.156h-120.925zM420.911 188.183l54.831-86.016h-142.336l68.236 85.83zM603.508 188.183h19.037l68.236-86.016h-142.336zM722.525 62.185l68.236-86.016h-557.382l68.236 86.016zM841.868-23.831l-68.236 86.016h121.018l68.236-86.016zM862.813 102.167h-121.018l-68.236 86.016h121.018zM279.226 484.631c-29.465 43.65-47.034 97.44-47.034 155.334 0 154.649 125.368 280.017 280.017 280.017s280.017-125.368 280.017-280.017c0-57.894-17.569-111.684-47.667-156.33l0.633 0.997-0.512-0.326-232.727-365.056-232.727 365.056v0.372zM350.813 187.997l-68.468-85.969h-121.018l68.236 86.016zM512.14 439.994c110.537 0 200.145 89.608 200.145 200.145s-89.608 200.145-200.145 200.145c-110.537 0-200.145-89.608-200.145-200.145v0c0-110.537 89.608-200.145 200.145-200.145v0zM512.14 799.977c88.333-0.027 159.93-71.64 159.93-159.977 0-88.353-71.624-159.977-159.977-159.977s-159.977 71.624-159.977 159.977v0c0.079 88.346 71.677 159.944 160.015 160.023h0.008zM596.247 371.805c-2.947 1.804-6.513 2.872-10.33 2.872-7.23 0-13.565-3.834-17.082-9.58l-0.050-0.088-73.914-122.647c-2.018-3.073-3.219-6.839-3.219-10.885 0-11.054 8.961-20.015 20.015-20.015 7.461 0 13.968 4.082 17.41 10.135l0.052 0.099 73.914 122.647c1.804 2.947 2.872 6.513 2.872 10.33 0 7.23-3.834 13.565-9.58 17.082l-0.088 0.050z" />
<glyph unicode="&#xe914;" glyph-name="notification" horiz-adv-x="931" d="M845.597 75.6h-760.288c-0.025 0-0.055 0-0.085 0-47.115 0-85.309 38.194-85.309 85.309 0 27.843 13.339 52.571 33.975 68.142l0.216 0.156 38.338 28.732c14.090 10.612 23.939 26.2 26.941 44.109l0.056 0.407 48.071 291.979c24.453 155.46 157.455 272.951 317.899 272.951 160.535 0 293.597-117.624 317.704-271.39l0.234-1.815 48.071-291.683c3.059-18.317 12.908-33.905 26.82-44.388l0.177-0.128 38.338-28.732c20.852-15.727 34.191-40.455 34.191-68.298 0-47.115-38.194-85.309-85.309-85.309-0.030 0-0.060 0-0.090 0h0.005zM465.474 820.358c-0.399 0.002-0.871 0.003-1.344 0.003-136.868 0-250.265-100.495-270.427-231.722l-0.193-1.526-48.113-291.979c-5.043-30.603-21.464-56.66-44.688-74.179l-0.294-0.212-38.338-28.775c-9.447-7.156-15.488-18.381-15.488-31.018 0-21.416 17.349-38.779 38.759-38.804h760.248c0.025 0 0.055 0 0.085 0 21.407 0 38.761 17.354 38.761 38.761 0 12.667-6.076 23.915-15.473 30.988l-0.099 0.071-38.338 28.775c-23.475 17.684-39.885 43.659-44.888 73.501l-0.094 0.679-48.113 291.979c-20.281 132.858-133.736 233.459-270.688 233.459-0.449 0-0.897-0.001-1.345-0.003h0.069zM535.295 811.895c-12.854 0-23.274 10.42-23.274 23.274v0 31.737c0 25.707-20.84 46.547-46.547 46.547s-46.547-20.84-46.547-46.547v-31.652c0-12.854-10.42-23.274-23.274-23.274s-23.274 10.42-23.274 23.274v0 31.652c0 51.415 41.68 93.095 93.095 93.095s93.095-41.68 93.095-93.095v-31.652c0-0.025 0-0.055 0-0.085 0-12.854-10.42-23.274-23.274-23.274 0 0 0 0 0 0v0zM465.474-64.042c-89.937 0.096-162.819 72.979-162.916 162.906v0.009c0 12.854 10.42 23.274 23.274 23.274s23.274-10.42 23.274-23.274v0c0-64.269 52.1-116.368 116.368-116.368s116.368 52.1 116.368 116.368v0c0 12.854 10.42 23.274 23.274 23.274s23.274-10.42 23.274-23.274v0c-0.096-89.937-72.979-162.819-162.906-162.916h-0.009z" />
<glyph unicode="&#xe915;" glyph-name="person" horiz-adv-x="859" d="M9.337 40.506c122.575-61.704 266.507-99.784 418.841-104.506l1.565-0.038c154.076 1.071 298.884 39.728 426.030 107.24l-4.998-2.421c5.205 2.927 8.672 8.399 8.712 14.684v0.006c0.084 3.535 0.132 7.698 0.132 11.873 0 131.099-47.314 251.147-125.798 344l0.649-0.788c-52.863 60.656-122.662 105.303-202.015 126.629l-2.855 0.653c78.53 34.431 132.392 111.49 132.392 201.13 0 17.044-1.947 33.634-5.632 49.558l0.288-1.476c-28.327 100.551-119.231 173.022-227.061 173.022s-198.733-72.471-226.66-171.363l-0.4-1.659c-3.397-14.448-5.344-31.038-5.344-48.082 0-89.639 53.862-166.698 130.987-200.579l1.405-0.551c-82.086-22.040-151.771-66.676-204.14-126.792l-0.418-0.49c-77.835-92.065-125.148-212.113-125.148-343.212 0-4.175 0.048-8.338 0.143-12.49l-0.011 0.617c0.073-6.514 3.809-12.139 9.241-14.918l0.096-0.044zM232.765 738.135c5.051 104.863 91.3 187.971 196.959 187.971s191.908-83.108 196.942-187.52l0.017-0.451c-5.051-104.863-91.3-187.971-196.959-187.971s-191.908 83.108-196.942 187.52l-0.017 0.451zM152.364 388.559c67.415 78.374 166.705 127.7 277.516 127.7s210.101-49.326 277.112-127.218l0.404-0.481c72.372-85.811 116.355-197.623 116.355-319.708 0-1.202-0.004-2.404-0.013-3.604l0.001 0.184c-114.806-58.431-250.102-93.423-393.389-95.28l-0.607-0.006c-143.991 4.963-278.712 39.726-399.786 98.269l5.946-2.593c-0.005 0.868-0.009 1.894-0.009 2.922 0 122.138 44.028 233.992 117.079 320.558l-0.61-0.742z" />
<glyph unicode="&#xe916;" glyph-name="pin" horiz-adv-x="757" d="M378.266 960c-208.816-0.235-378.031-169.45-378.266-378.243v-0.023c2.464-53.059 14.025-102.762 33.152-148.514l-1.069 2.882c14.106-31.813 28.706-58.651 45.16-84.182l-1.453 2.408 259.353-392.984c8.601-15.219 24.673-25.325 43.105-25.325s34.504 10.106 42.977 25.080l0.128 0.246 259.387 392.984c15.016 23.131 29.617 49.97 42.165 77.93l1.542 3.844c18.061 42.87 29.622 92.574 32.048 144.664l0.036 0.968c-0.235 208.816-169.45 378.031-378.243 378.266h-0.023zM683.423 453.364c-12.826-29.009-26.084-53.467-41.021-76.745l1.337 2.227-259.525-393.018c-5.124-7.772-6.878-7.772-11.864 0l-259.387 393.018c-13.661 21.072-26.974 45.539-38.435 71.020l-1.421 3.533c-15.799 37.754-26.077 81.505-28.567 127.328l-0.044 1.007c0 184.335 149.433 333.768 333.768 333.768s333.768-149.433 333.768-333.768v0c-2.537-46.843-12.814-90.605-29.577-130.997l0.966 2.628zM378.128 781.974c-110.609 0-200.275-89.666-200.275-200.275s89.666-200.275 200.275-200.275c110.609 0 200.275 89.666 200.275 200.275v0c-0.117 110.561-89.713 200.157-200.263 200.275h-0.012zM378.128 425.957c-86.014 0-155.742 69.728-155.742 155.742s69.728 155.742 155.742 155.742c86.014 0 155.742-69.728 155.742-155.742v0c-0.117-85.967-69.776-155.625-155.731-155.742h-0.011z" />
<glyph unicode="&#xe917;" glyph-name="search-view" d="M379.951 960.233c0.016 0 0.035 0 0.053 0 75.023 0 144.954-21.803 203.802-59.418l-1.522 0.91c5.251-3.66 8.644-9.669 8.644-16.471 0-11.054-8.961-20.015-20.015-20.015-3.66 0-7.091 0.982-10.043 2.698l0.096-0.051c-51.249 32.646-113.709 52.031-180.696 52.031-187.656 0-339.782-152.126-339.782-339.782s152.126-339.782 339.782-339.782c187.656 0 339.782 152.126 339.782 339.782 0 66.987-19.385 129.447-52.851 182.076l0.82-1.38c-1.664 2.856-2.647 6.287-2.647 9.947 0 11.054 8.961 20.015 20.015 20.015 6.802 0 12.811-3.393 16.428-8.579l0.043-0.065c36.607-57.335 58.347-127.242 58.347-202.226 0-83.75-27.12-161.165-73.057-223.944l0.747 1.070 34.211-34.211c7.557 3.682 16.441 5.834 25.828 5.834 16.575 0 31.583-6.711 42.454-17.564l216.342-216.342c10.836-10.868 17.536-25.865 17.536-42.426s-6.7-31.558-17.537-42.428l-56.552-56.552c-10.868-10.836-25.865-17.536-42.426-17.536s-31.558 6.7-42.428 17.537l-216.668 216.528c-10.831 10.895-17.525 25.912-17.525 42.492 0 9.37 2.138 18.24 5.953 26.15l-0.157-0.361-34.211 34.211c-61.644-44.976-138.91-71.959-222.479-71.959-209.815 0-379.904 170.089-379.904 379.904 0 209.714 169.925 379.74 379.601 379.904h0.016zM676.911 198.423l216.343-216.343c3.632-3.598 8.631-5.821 14.15-5.821s10.518 2.223 14.151 5.823l56.551 56.551c3.62 3.622 5.86 8.624 5.86 14.15s-2.239 10.528-5.86 14.15l-216.343 216.343c-3.622 3.62-8.624 5.86-14.15 5.86s-10.528-2.239-14.15-5.86l-56.553-56.553c-3.598-3.632-5.821-8.631-5.821-14.15s2.223-10.518 5.823-14.151l-0.002 0.002zM662.947 269.126l28.3 28.3-28.812 28.812c-9.046-10.019-18.281-19.254-27.965-28.002l-0.335-0.298zM143.174 429.196c-2.748-1.512-6.023-2.402-9.506-2.402-7.549 0-14.122 4.18-17.531 10.351l-0.052 0.103c-22.747 41.244-36.131 90.407-36.131 142.696 0 165.6 134.246 299.846 299.846 299.846s299.846-134.246 299.846-299.846c0-165.6-134.246-299.846-299.846-299.846-52.289 0-101.452 13.384-144.25 36.914l1.553-0.783c-6.285 3.458-10.473 10.037-10.473 17.594 0 11.054 8.961 20.015 20.015 20.015 3.497 0 6.785-0.897 9.645-2.473l-0.103 0.052c35.71-19.666 78.267-31.237 123.527-31.237 143.519 0 259.863 116.345 259.863 259.863s-116.345 259.863-259.863 259.863c-143.519 0-259.863-116.345-259.863-259.863 0-45.26 11.571-87.818 31.915-124.876l-0.679 1.349c1.593-2.807 2.532-6.166 2.532-9.744 0-7.545-4.175-14.116-10.342-17.526l-0.103-0.052zM634.554 814.592c-0.006 0-0.013 0-0.021 0-11.054 0-20.015 8.961-20.015 20.015s8.961 20.015 20.015 20.015c5.196 0 9.93-1.98 13.488-5.227l-0.016 0.014c3.996-3.671 6.492-8.922 6.492-14.755 0-11.029-8.92-19.974-19.939-20.014h-0.004zM181.993 362.031c-0.009 0-0.021 0-0.032 0-11.054 0-20.015 8.961-20.015 20.015s8.961 20.015 20.015 20.015c4.897 0 9.384-1.759 12.862-4.68l-0.031 0.025c4.403-3.697 7.183-9.204 7.183-15.36 0-11.043-8.943-19.997-19.981-20.015h-0.002zM170.543 568.46c-2.332 3.231-3.73 7.27-3.73 11.636s1.398 8.406 3.771 11.695l-0.041-0.059c49.947 60.901 125.199 99.453 209.455 99.453s159.507-38.552 209.077-98.978l0.378-0.474c2.332-3.231 3.73-7.27 3.73-11.636s-1.398-8.406-3.771-11.695l0.041 0.059c-49.947-60.901-125.199-99.453-209.455-99.453s-159.507 38.552-209.077 98.978l-0.378 0.474zM308.969 580.003c0-39.228 31.8-71.028 71.028-71.028s71.028 31.8 71.028 71.028c0 39.228-31.8 71.028-71.028 71.028v0c-39.19-0.053-70.949-31.795-71.028-70.974v-0.008zM547.84 580.003c-18.691 21.296-41.673 38.341-67.646 49.87l-1.241 0.492c7.636-14.636 12.115-31.964 12.115-50.339s-4.479-35.703-12.405-50.953l0.29 0.614c27.194 12.013 50.158 29.043 68.652 50.096l0.189 0.219zM281.088 529.641c-7.636 14.636-12.115 31.964-12.115 50.339s4.479 35.703 12.405 50.953l-0.29-0.614c-27.215-12.021-50.196-29.067-68.698-50.142l-0.19-0.22c18.697-21.259 41.678-38.275 67.645-49.778l1.243-0.491zM379.997 560.035v0c-11.054 0-20.015 8.961-20.015 20.015s8.961 20.015 20.015 20.015c11.054 0 20.015-8.961 20.015-20.015v0c0-11.054-8.961-20.015-20.015-20.015v0z" />
<glyph unicode="&#xe918;" glyph-name="search" d="M668.283 291.717c11.586 11.603 27.6 18.78 45.291 18.78s33.705-7.177 45.29-18.779l246.424-246.424c11.599-11.587 18.774-27.601 18.774-45.291 0-35.356-28.662-64.018-64.018-64.018-17.666 0-33.662 7.156-45.245 18.728v0l-246.423 246.423c-11.603 11.586-18.78 27.6-18.78 45.291s7.177 33.705 18.779 45.29l0.001 0.001zM415.996 191.965c194.4 0 351.993 157.593 351.993 351.993s-157.593 351.993-351.993 351.993c-194.384 0-351.966-157.566-351.993-351.943v-0.003c0-0.014 0-0.030 0-0.047 0-194.4 157.593-351.993 351.993-351.993v0zM831.991 543.958c-0.026-229.728-186.264-415.949-415.996-415.949-229.748 0-415.996 186.248-415.996 415.996s186.248 415.996 415.996 415.996v0c229.748 0 415.996-186.248 415.996-415.996v0z" />
<glyph unicode="&#xe919;" glyph-name="snapchat" horiz-adv-x="1088" d="M0 162.303v17.012c6.205 8.407 15.078 14.531 25.353 17.143l0.313 0.068c84.966 19.553 154.366 74.288 193.247 147.676l0.762 1.577c37.833 62.807 31.75 77.149-37.981 101.876-4.055 1.434-8.11 2.572-12.067 4.204-16.266 5.937-30.332 13.935-42.783 23.872l0.302-0.233c-31.206 27.101-12.71 66.219 24.134 75.121 26.903 6.479 50.394-10.88 76.555-14.094 17.457-2.127 24.43 3.759 22.205 22.353-2.954 27.485-4.639 59.368-4.639 91.645 0 18.492 0.553 36.854 1.643 55.072l-0.12-2.508c2.501 88.853 52.129 165.571 124.681 206.283l1.229 0.634c48.405 31.391 107.592 50.053 171.138 50.053 62.865 0 121.464-18.265 170.78-49.778l-1.277 0.763c68.461-37.834 116.173-105.972 125.166-185.83l0.101-1.107c2.398-23.781 3.765-51.394 3.765-79.326 0-29.539-1.529-58.721-4.513-87.471l0.303 3.598c-1.929-23.59 2.967-27.942 26.31-22.452 29.030 6.825 53.312 21.76 83.429 8.506 16.603-6.341 28.425-21.601 29.665-39.768l0.008-0.141c-1.033-12.61-7.179-23.608-16.336-31.042l-0.082-0.065c-14.006-10.693-30.242-19.425-47.767-25.365l-1.193-0.351c-13.056-5.341-26.755-9.446-39.563-15.43-26.359-12.364-33.926-28.634-21.562-54.696 36.073-90.151 111.693-157.768 204.812-182.118l2.105-0.467c12.142-2.275 22.466-8.801 29.591-17.942l0.081-0.108v-17.012c-9.819-18.19-26.119-31.819-45.735-37.931l-0.554-0.149c-17.775-8.256-38.397-14.337-60.036-17.192l-1.089-0.117c-0.876 0.059-1.9 0.092-2.931 0.092-25.317 0-45.911-20.216-46.523-45.385l-0.001-0.057c-4.253-29.129-13.056-33.233-42.778-30.859-8.086 0.782-15.224 1.882-22.229 3.345l1.31-0.229c-13.461 3.425-28.915 5.391-44.827 5.391-43.82 0-84.159-14.908-116.22-39.929l0.42 0.315c-8.48-6.545-18.159-13.247-28.173-19.459l-1.5-0.866c-36.413-27.037-82.246-43.28-131.873-43.28-43.779 0-84.605 12.641-119.027 34.472l0.909-0.538c-23.293 13.55-45.251 29.129-67.752 43.866-17.42 11.305-38.082 19.214-60.294 22.265l-0.782 0.088c-8.316 0.629-18.012 0.987-27.792 0.987-26.754 0-52.882-2.682-78.13-7.791l2.513 0.425c-17.655-1.929-34.618 3.116-35.657 21.315-2.423 44.014-29.326 54.795-66.368 58.851-18.915 3.147-35.876 8.625-51.625 16.219l1.133-0.492c-18.494 6.416-33.321 19.395-41.99 36.085l-0.195 0.412z" />
<glyph unicode="&#xe91a;" glyph-name="tiktok" horiz-adv-x="898" d="M897.78 700.746c-63.476 3.626-121.339 24.939-169.511 59.037l1.014-0.681c-67.293 48.97-90.472 155.969-94.063 195.553v5.346h-163.722v-706.39c0-84.99-68.898-153.888-153.888-153.888s-153.888 68.898-153.888 153.888c0 84.99 68.898 153.888 153.888 153.888v0h51.786v163.722h-51.786c-175.411 0-317.61-142.199-317.61-317.61s142.199-317.61 317.61-317.61c175.411 0 317.61 142.199 317.61 317.61v0 371.355c73.152-52.238 163.588-84.736 261.424-88.083l0.809-0.022v163.886z" />
<glyph unicode="&#xe91b;" glyph-name="trash" horiz-adv-x="990" d="M963.355 817.474h-298.234v50.163c0 51.011-41.352 92.363-92.363 92.363h-155.708c-51.011 0-92.363-41.352-92.363-92.363v0-50.163h-298.234c-14.585 0-26.409-11.824-26.409-26.409v0c-0.025-0.415-0.038-0.9-0.038-1.388 0-13.84 11.219-25.059 25.059-25.059 0.488 0 0.973 0.014 1.455 0.042l-0.067-0.003h83.14v-630.749c0-109.326 88.626-197.953 197.953-197.953v0h376.065c109.326 0 197.953 88.626 197.953 197.953v0 630.794h81.79c0.415-0.025 0.9-0.038 1.388-0.038 13.84 0 25.059 11.219 25.059 25.059 0 0.488-0.014 0.973-0.042 1.455l0.003-0.067c-0.026 14.566-11.839 26.364-26.409 26.364 0 0 0 0 0 0v0zM377.46 867.637c0 21.865 17.725 39.591 39.591 39.591v0h155.708c21.865 0 39.591-17.725 39.591-39.591v-50.163h-234.889zM828.747 133.953c0-80.156-64.979-145.135-145.135-145.135v0h-376.11c-80.156 0-145.135 64.979-145.135 145.135v0 630.749h666.381zM314.115 140.521c14.585 0 26.409 11.824 26.409 26.409v0 448.633c-0.601 14.109-12.184 25.319-26.386 25.319s-25.785-11.21-26.384-25.265l-0.002-0.054v-448.678c0.026-14.55 11.814-26.338 26.361-26.364h0.002zM494.882 140.521c14.585 0 26.409 11.824 26.409 26.409v0 448.633c0.014 0.325 0.022 0.707 0.022 1.090 0 14.585-11.824 26.409-26.409 26.409s-26.409-11.824-26.409-26.409c0-0.383 0.008-0.765 0.024-1.144l-0.002 0.054v-448.678c0.026-14.55 11.814-26.338 26.361-26.364h0.002zM675.693 140.521c14.585 0 26.409 11.824 26.409 26.409v0 448.633c-0.601 14.109-12.184 25.319-26.386 25.319s-25.785-11.21-26.384-25.265l-0.002-0.054v-448.678c0.026-14.55 11.814-26.338 26.361-26.364h0.002z" />
<glyph unicode="&#xe91c;" glyph-name="twitter" horiz-adv-x="1387" d="M1356.655 769.056c-42.452-12.444-91.578-20.634-142.269-22.777l-1.27-0.043c20.803 1.513 48.288 36.31 61.778 50.431 19.494 20.569 35.253 44.909 46.042 71.78l0.544 1.534c0.463 0.787 0.737 1.734 0.737 2.745 0 1.642-0.722 3.116-1.865 4.121l-0.006 0.005c-1.122 0.511-2.433 0.809-3.814 0.809s-2.692-0.298-3.873-0.833l0.059 0.024c-45.449-19.464-98.33-34.551-153.46-42.746l-3.57-0.436c-0.63-0.136-1.353-0.213-2.095-0.213-3.346 0-6.323 1.58-8.226 4.035l-0.018 0.024c-3.894 5.491-7.825 10.302-12.053 14.833l0.076-0.082c-19.67 20.453-42.408 37.763-67.515 51.233l-1.45 0.71c-32.081 17.072-69.952 27.624-110.16 28.924l-0.409 0.010c-2.312 0.071-5.031 0.112-7.759 0.112-36.634 0-71.559-7.315-103.395-20.563l1.782 0.657c-36.166-14.855-67.008-35.786-92.701-61.812l-0.029-0.029c-26.578-26.946-47.454-59.589-60.625-95.925l-0.585-1.848c-8.905-26.228-14.044-56.439-14.044-87.85 0-7.197 0.27-14.33 0.8-21.391l-0.057 0.941c0-6.304-0.378-6.871-5.8-5.547-203.637 41.828-375.533 155.28-491.983 312.317l-1.547 2.183c-5.421 7.502-8.636 7.817-14.373 0.82-28.183-41.44-44.998-92.585-44.998-147.657 0-63.779 22.552-122.291 60.116-167.997l-0.367 0.46c9.33-10.654 18.912-21.307 29.187-31.204-36.773 6.542-69.535 19.767-98.435 38.453l1.040-0.63c-5.737 4.413-8.951 2.459-10.149-4.35-0.958-6.407-1.506-13.801-1.506-21.324 0-3.032 0.089-6.044 0.264-9.032l-0.019 0.412c3.45-98.95 60.127-183.907 142.153-227.435l1.45-0.702c9.232-5.208 19.936-9.756 31.165-13.082l1.11-0.282c-9.088-0.974-19.632-1.529-30.306-1.529-24.197 0-47.728 2.855-70.273 8.247l2.049-0.414c-6.997 2.080-10.086-1.261-8.006-8.384 26.059-93.139 97.092-165.318 187.594-192.518l1.964-0.507c9.141-2.522 18.533-3.467 27.611-6.304-0.567-0.82-1.198-0.756-1.765-1.576-41.487-31.043-91.741-52.702-146.406-60.864l-1.798-0.221c-37.107-9.728-79.708-15.313-123.613-15.313-32.926 0-65.117 3.141-96.292 9.14l3.179-0.509c-11.347 2.837-13.805 2.9-17.083 1.639s-0.883-4.665 2.522-8.006c13.616-11.095 27.611-21.055 42.047-30.763 39.576-26.741 84.894-50.646 132.773-69.454l4.777-1.653c85.807-36.129 185.553-57.122 290.202-57.122 176.427 0 338.919 59.667 468.396 159.922l-1.756-1.308c166.233 135.974 239.547 338.644 259.593 546.734 0.756 8.132 10.78 11.662 16.957 15.444 51.795 26.515 96.439 57.311 136.54 93.092l-0.628-0.551c7.502 8.258 33.347 13.742 33.663 17.020v1.072c0.693 3.278-24.459 4.728-29.817 2.9z" />
<glyph unicode="&#xe91d;" glyph-name="user" horiz-adv-x="854" d="M420.683 466.815c0.976-0.014 2.128-0.023 3.282-0.023 67.085 0 127.706 27.678 171.066 72.237l0.053 0.054c44.614 43.412 72.292 104.033 72.292 171.119 0 1.154-0.008 2.306-0.025 3.456l0.002-0.174c0.014 0.976 0.023 2.128 0.023 3.282 0 67.085-27.678 127.706-72.237 171.066l-0.054 0.053c-44.626 44.633-106.28 72.24-174.382 72.24s-129.756-27.607-174.382-72.24v0c-44.613-43.412-72.291-104.033-72.291-171.118 0-1.14 0.008-2.279 0.024-3.416l-0.002 0.172c-0.014-0.976-0.023-2.128-0.023-3.282 0-67.085 27.678-127.706 72.237-171.066l0.054-0.053c43.428-44.636 104.074-72.329 171.188-72.329 1.116 0 2.23 0.008 3.343 0.023l-0.169-0.002zM288.649 845.402c33.754 33.869 80.447 54.825 132.034 54.825s98.279-20.956 132.029-54.819l0.005-0.005c33.749-32.494 54.712-78.063 54.712-128.528 0-1.233-0.013-2.462-0.037-3.689l0.003 0.183c0.022-1.043 0.034-2.273 0.034-3.506 0-50.465-20.963-96.034-54.656-128.474l-0.056-0.054c-33.754-33.869-80.447-54.825-132.034-54.825s-98.279 20.956-132.029 54.819l-0.005 0.005c-33.749 32.488-54.712 78.052-54.712 128.512 0 1.238 0.013 2.474 0.038 3.706l-0.003-0.184c-0.022 1.048-0.035 2.284-0.035 3.522 0 50.46 20.963 96.024 54.656 128.457l0.057 0.054zM852.278 172.574c-1.853 24.572-4.801 46.733-8.905 68.485l0.594-3.788c-4.527 25.501-10.049 47.383-16.931 68.653l1.009-3.607c-7.6 23.292-16.661 43.353-27.581 62.201l0.825-1.543c-11.302 20.106-24.639 37.389-40.109 52.498l-0.045 0.044c-16.245 15.294-35.491 27.617-56.733 35.969l-1.207 0.418c-21.365 8.485-46.12 13.405-72.024 13.405-0.619 0-1.237-0.003-1.854-0.008l0.094 0.001c-15.422-1.703-29.158-7.846-40.192-17.104l0.116 0.095c-12-7.767-26.057-16.893-41.746-26.912-15.518-9.45-33.421-17.542-52.322-23.356l-1.695-0.449c-19.703-6.76-42.404-10.663-66.017-10.663s-46.314 3.903-67.494 11.098l1.477-0.436c-20.58 6.257-38.47 14.349-55.039 24.402l1.060-0.597c-15.533 9.941-29.591 18.99-41.785 26.95-10.916 9.167-24.653 15.311-39.739 16.979l-0.337 0.030c-0.534 0.005-1.164 0.008-1.795 0.008-25.892 0-50.635-4.92-73.344-13.877l1.356 0.471c-22.751-8.69-42.265-21.040-58.817-36.519l0.101 0.093c-15.575-15.15-28.962-32.434-39.717-51.406l-0.592-1.135c-10.093-17.315-19.154-37.388-26.105-58.422l-0.651-2.275c-5.868-17.656-11.389-39.538-15.452-61.928l-0.469-3.118c-3.522-17.997-6.47-40.171-8.185-62.691l-0.125-2.045c-1.359-19.417-2.058-39.921-2.058-60.464-0.108-2.264-0.169-4.918-0.169-7.587 0-47.373 19.375-90.22 50.634-121.049l0.019-0.019c32.209-29.52 75.315-47.609 122.646-47.609 2.632 0 5.252 0.056 7.857 0.167l-0.372-0.013h493.185c2.233-0.098 4.853-0.154 7.485-0.154 47.331 0 90.436 18.089 122.781 47.731l-0.135-0.122c31.278 30.843 50.654 73.685 50.654 121.053 0 2.674-0.062 5.333-0.184 7.977l0.014-0.375c0 20.621-0.699 40.969-2.058 60.503zM762.457 26.909c-21.571-19.403-50.257-31.27-81.715-31.27-2.483 0-4.949 0.074-7.395 0.22l0.337-0.016h-493.069c-2.109-0.13-4.575-0.204-7.058-0.204-31.458 0-60.145 11.867-81.827 31.369l0.112-0.099c-19.846 20.050-32.108 47.64-32.108 78.093 0 2.487 0.082 4.955 0.243 7.401l-0.018-0.332c0 19.184 0.621 38.134 1.903 56.309 1.666 22.114 4.324 42.066 8.029 61.647l-0.535-3.397c3.973 22.488 8.823 41.785 14.868 60.546l-0.888-3.189c6.183 18.941 13.547 35.251 22.42 50.579l-0.673-1.26c8.346 14.857 18.187 27.631 29.6 38.804l0.030 0.029c10.807 10.087 23.605 18.205 37.718 23.685l0.804 0.275c13.998 5.527 30.201 8.851 47.146 9.124l0.114 0.001c2.097-1.126 5.825-3.262 11.922-7.184 12.349-8.039 26.562-17.203 42.29-27.183 19.487-12.038 41.953-22.33 65.697-29.725l2.106-0.565c25.235-8.615 54.307-13.589 84.54-13.589s59.305 4.973 86.442 14.146l-1.901-0.558c25.865 7.973 48.344 18.278 69.131 31.067l-1.289-0.738c16.077 10.291 29.902 19.184 42.251 27.183 6.058 3.883 9.786 6.097 11.922 7.184 17.060-0.277 33.263-3.602 48.2-9.45l-0.94 0.324c14.917-5.759 27.714-13.877 38.592-24.024l-0.069 0.064c11.449-11.199 21.291-23.974 29.191-37.988l0.439-0.846c8.22-14.071 15.597-30.381 21.256-47.474l0.529-1.845c5.172-15.575 10.035-34.872 13.608-54.617l0.411-2.74c3.159-16.163 5.817-36.115 7.379-56.374l0.116-1.877c1.282-18.135 1.903-37.047 1.903-56.309 0.143-2.114 0.225-4.582 0.225-7.068 0-30.454-12.261-58.044-32.117-78.103l0.009 0.009z" />
<glyph unicode="&#xe91e;" glyph-name="chevron-left" d="M670.165 200.832l-225.835 225.835 225.835 225.835c16.683 16.683 16.683 43.691 0 60.331s-43.691 16.683-60.331 0l-256-256c-16.683-16.683-16.683-43.691 0-60.331l256-256c16.683-16.683 43.691-16.683 60.331 0s16.683 43.691 0 60.331z" />
<glyph unicode="&#xe91f;" glyph-name="chevron-right" d="M414.165 140.502l256 256c16.683 16.683 16.683 43.691 0 60.331l-256 256c-16.683 16.683-43.691 16.683-60.331 0s-16.683-43.691 0-60.331l225.835-225.835-225.835-225.835c-16.683-16.683-16.683-43.691 0-60.331s43.691-16.683 60.331 0z" />
<glyph unicode="&#xe920;" glyph-name="eye" d="M4.523 445.739c-5.803-11.691-6.229-25.728 0-38.144 0 0 16.896-33.664 47.787-78.635 19.243-27.989 44.288-61.099 74.965-94.635 38.144-41.771 85.504-84.779 141.611-119.467 68.053-42.069 149.589-72.192 243.115-72.192s175.061 30.123 243.115 72.192c56.107 34.688 103.467 77.696 141.611 119.467 30.635 33.536 55.723 66.645 74.965 94.635 30.891 44.971 47.787 78.635 47.787 78.635 5.803 11.691 6.229 25.728 0 38.144 0 0-16.896 33.664-47.787 78.635-19.243 27.989-44.288 61.099-74.965 94.635-38.144 41.771-85.504 84.779-141.611 119.467-68.053 42.069-149.589 72.192-243.115 72.192s-175.061-30.123-243.115-72.192c-56.107-34.688-103.467-77.696-141.611-119.467-30.677-33.536-55.723-66.603-74.965-94.635-30.891-44.971-47.787-78.635-47.787-78.635zM91.307 426.667c6.955 11.989 17.365 29.056 31.317 49.408 17.493 25.429 40.107 55.296 67.627 85.376 34.347 37.589 75.733 74.923 123.477 104.448 57.6 35.584 123.776 59.435 198.272 59.435s140.672-23.851 198.229-59.435c47.744-29.525 89.131-66.859 123.477-104.448 27.477-30.080 50.133-59.947 67.627-85.376 13.995-20.352 24.405-37.376 31.317-49.408-6.955-11.989-17.365-29.056-31.317-49.408-17.493-25.429-40.107-55.296-67.627-85.376-34.347-37.589-75.733-74.923-123.477-104.448-57.557-35.584-123.733-59.435-198.229-59.435s-140.672 23.851-198.229 59.435c-47.744 29.525-89.131 66.859-123.477 104.448-27.477 30.080-50.133 59.947-67.627 85.376-13.995 20.352-24.405 37.419-31.36 49.408zM682.667 426.667c0 47.104-19.157 89.856-50.005 120.661s-73.557 50.005-120.661 50.005-89.856-19.157-120.661-50.005-50.005-73.557-50.005-120.661 19.157-89.856 50.005-120.661 73.557-50.005 120.661-50.005 89.856 19.157 120.661 50.005 50.005 73.557 50.005 120.661zM597.333 426.667c0-23.595-9.515-44.843-25.003-60.331s-36.736-25.003-60.331-25.003-44.843 9.515-60.331 25.003-25.003 36.736-25.003 60.331 9.515 44.843 25.003 60.331 36.736 25.003 60.331 25.003 44.843-9.515 60.331-25.003 25.003-36.736 25.003-60.331z" />
<glyph unicode="&#xe921;" glyph-name="eye-off" d="M432.128 716.203c27.776 6.485 55.296 9.429 79.36 9.131 75.008 0 141.184-23.851 198.741-59.435 47.744-29.525 89.131-66.859 123.477-104.448 27.477-30.080 50.133-59.947 67.627-85.376 13.952-20.267 24.32-37.291 31.275-49.28-23.296-40.661-49.493-77.696-75.861-108.459-15.317-17.877-13.269-44.843 4.608-60.16s44.843-13.269 60.16 4.608c34.901 40.704 68.736 90.112 97.408 143.787 6.315 11.904 6.955 26.368 0.555 39.211 0 0-16.896 33.664-47.787 78.635-19.243 27.989-44.288 61.099-74.965 94.635-38.144 41.771-85.504 84.779-141.611 119.467-68.053 42.027-149.589 72.149-242.603 72.149-31.317 0.384-65.707-3.371-99.84-11.349-22.955-5.376-37.205-28.331-31.829-51.285s28.331-37.205 51.285-31.829zM427.819 450.475l107.989-107.989c-7.765-2.603-15.872-4.011-24.021-4.309-21.888-0.768-43.947 6.784-61.184 22.869s-26.325 37.547-27.093 59.435c-0.341 10.155 1.067 20.309 4.309 30.037zM255.275 623.062l108.928-108.928c-18.517-29.483-27.136-63.317-25.941-96.683 1.536-43.605 19.755-86.741 54.229-118.827s78.763-47.232 122.368-45.696c29.525 1.024 58.837 9.728 84.651 25.941l99.072-99.072c-58.795-34.091-123.52-51.029-187.051-51.797-73.984 0-140.16 23.851-197.717 59.435-47.744 29.525-89.131 66.859-123.477 104.448-27.477 30.080-50.133 59.947-67.627 85.376-13.909 20.267-24.32 37.248-31.232 49.237 44.8 77.739 101.376 144.171 163.883 196.565zM12.501 865.835l182.229-182.229c-73.856-63.104-139.477-143.275-189.653-236.757-6.315-11.904-6.997-26.411-0.555-39.253 0 0 16.896-33.664 47.787-78.635 19.243-27.989 44.288-61.099 74.965-94.635 38.144-41.771 85.504-84.779 141.611-119.467 68.053-42.069 149.589-72.192 243.627-72.192 85.035 1.024 171.477 25.643 248.107 75.051l190.549-190.549c16.683-16.683 43.691-16.683 60.331 0s16.683 43.691 0 60.331l-378.709 378.709c-0.085 0.085-0.213 0.213-0.299 0.299l-179.584 179.627c-0.341 0.299-0.683 0.683-1.024 1.024l-379.051 379.008c-16.683 16.683-43.691 16.683-60.331 0s-16.683-43.691 0-60.331z" />
<glyph unicode="&#xe922;" glyph-name="heart" d="M859.008 711.808c37.547-37.589 56.277-86.656 56.277-135.851s-18.773-98.261-56.277-135.765l-347.008-347.008-347.008 347.008c-37.504 37.504-56.235 86.571-56.235 135.808s18.731 98.304 56.235 135.808 86.571 56.235 135.808 56.235 98.304-18.731 135.808-56.235l45.227-45.227c16.683-16.683 43.691-16.683 60.331 0l45.312 45.312c37.504 37.504 86.571 56.235 135.765 56.192s98.261-18.773 135.765-56.277zM919.339 772.139c-54.144 54.144-125.184 81.237-196.096 81.28s-141.952-27.051-196.139-81.195l-15.104-15.147-15.061 15.061c-54.144 54.144-125.227 81.237-196.139 81.237s-141.995-27.093-196.139-81.237-81.237-125.227-81.237-196.139 27.093-141.995 81.237-196.139l377.173-377.173c16.683-16.683 43.691-16.683 60.331 0l377.173 377.173c54.144 54.144 81.237 125.184 81.28 196.096s-27.051 141.952-81.28 196.181z" />
<glyph unicode="&#xe923;" glyph-name="plus" d="M213.333 384h256v-256c0-23.552 19.115-42.667 42.667-42.667s42.667 19.115 42.667 42.667v256h256c23.552 0 42.667 19.115 42.667 42.667s-19.115 42.667-42.667 42.667h-256v256c0 23.552-19.115 42.667-42.667 42.667s-42.667-19.115-42.667-42.667v-256h-256c-23.552 0-42.667-19.115-42.667-42.667s19.115-42.667 42.667-42.667z" />
<glyph unicode="&#xe924;" glyph-name="chevron-down" d="M225.835 524.502l256-256c16.683-16.683 43.691-16.683 60.331 0l256 256c16.683 16.683 16.683 43.691 0 60.331s-43.691 16.683-60.331 0l-225.835-225.835-225.835 225.835c-16.683 16.683-43.691 16.683-60.331 0s-16.683-43.691 0-60.331z" />
<glyph unicode="&#xe925;" glyph-name="clock" d="M981.333 426.667c0 129.579-52.565 246.997-137.472 331.861s-202.283 137.472-331.861 137.472-246.997-52.565-331.861-137.472-137.472-202.283-137.472-331.861 52.565-246.997 137.472-331.861 202.283-137.472 331.861-137.472 246.997 52.565 331.861 137.472 137.472 202.283 137.472 331.861zM896 426.667c0-106.069-42.923-201.984-112.469-271.531s-165.461-112.469-271.531-112.469-201.984 42.923-271.531 112.469-112.469 165.461-112.469 271.531 42.923 201.984 112.469 271.531 165.461 112.469 271.531 112.469 201.984-42.923 271.531-112.469 112.469-165.461 112.469-271.531zM469.333 682.667v-256c0-16.597 9.472-31.019 23.595-38.144l170.667-85.333c21.077-10.539 46.72-2.005 57.259 19.072s2.005 46.72-19.072 57.259l-147.115 73.515v229.632c0 23.552-19.115 42.667-42.667 42.667s-42.667-19.115-42.667-42.667z" />
<glyph unicode="&#xe926;" glyph-name="home" horiz-adv-x="1018" d="M1011.974 492.842l-152.312 141.35v231.682h-175.438v-68.779l-175.438 162.904-503.374-467.158c-3.804-3.244-6.2-8.041-6.2-13.398 0-9.707 7.869-17.576 17.576-17.576 4.908 0 9.346 2.012 12.535 5.255l0.002 0.002 58.372 53.978v-585.103h842.179v585.103l58.233-54.070c3.121-2.903 7.319-4.684 11.933-4.684 9.689 0 17.543 7.854 17.543 17.543 0 5.074-2.154 9.645-5.598 12.848l-0.011 0.010zM719.284 830.769h105.272v-164.014l-105.272 97.733zM403.513-28.894v369.563c0.026 9.058 7.362 16.394 16.417 16.42h177.523c9.058-0.026 16.394-7.362 16.42-16.417v-369.566h-210.36zM894.769-28.894h-245.605v369.563c-0.053 28.443-23.122 51.48-51.572 51.48-0.049 0-0.098 0-0.146 0h-177.512c-28.447-0.026-51.5-23.080-51.526-51.524v-369.519h-245.605v582.606l385.983 358.416 386.029-358.231z" />
<glyph unicode="&#xe927;" glyph-name="notifications" d="M204.8 563.2c0 0.040 0 0.087 0 0.135 0 133.528 85.193 247.159 204.189 289.503l2.147 0.666c-0.815 4.852-1.28 10.442-1.28 16.14 0 56.554 45.846 102.4 102.4 102.4s102.4-45.846 102.4-102.4c0-5.699-0.465-11.288-1.361-16.734l0.081 0.593c120.875-43.156 205.824-156.653 205.824-289.991 0-0.11 0-0.22 0-0.33v0.017-307.2l153.6-102.4v-51.2h-921.6v51.2l153.6 102.4v307.2zM614.4 51.2c0-56.554-45.846-102.4-102.4-102.4s-102.4 45.846-102.4 102.4v0h204.8z" />
<glyph unicode="&#xe928;" glyph-name="search-o" d="M379.951 960.233c0.016 0 0.035 0 0.053 0 75.023 0 144.954-21.803 203.802-59.418l-1.522 0.91c5.251-3.66 8.644-9.669 8.644-16.471 0-11.054-8.961-20.015-20.015-20.015-3.66 0-7.091 0.982-10.043 2.698l0.096-0.051c-51.249 32.646-113.709 52.031-180.696 52.031-187.656 0-339.782-152.126-339.782-339.782s152.126-339.782 339.782-339.782c187.656 0 339.782 152.126 339.782 339.782 0 66.987-19.385 129.447-52.851 182.076l0.82-1.38c-2.218 3.177-3.544 7.119-3.544 11.371 0 11.054 8.961 20.015 20.015 20.015 7.394 0 13.851-4.009 17.316-9.972l0.051-0.096c36.607-57.335 58.347-127.242 58.347-202.226 0-83.75-27.12-161.165-73.057-223.944l0.747 1.070 34.211-34.211c7.557 3.682 16.441 5.834 25.828 5.834 16.575 0 31.583-6.711 42.454-17.564l216.342-216.342c10.836-10.868 17.536-25.865 17.536-42.426s-6.7-31.558-17.537-42.428l-56.552-56.552c-10.868-10.836-25.865-17.536-42.426-17.536s-31.558 6.7-42.428 17.537l-216.668 216.528c-10.831 10.895-17.525 25.912-17.525 42.492 0 9.37 2.138 18.24 5.953 26.15l-0.157-0.361-34.211 34.211c-61.644-44.976-138.91-71.959-222.479-71.959-209.815 0-379.904 170.089-379.904 379.904 0 209.714 169.925 379.74 379.601 379.904h0.016zM676.911 198.423l216.343-216.343c3.632-3.598 8.631-5.821 14.15-5.821s10.518 2.223 14.151 5.823l56.551 56.551c3.62 3.622 5.86 8.624 5.86 14.15s-2.239 10.528-5.86 14.15l-216.343 216.343c-3.622 3.62-8.624 5.86-14.15 5.86s-10.528-2.239-14.15-5.86l-56.553-56.553c-3.598-3.632-5.821-8.631-5.821-14.15s2.223-10.518 5.823-14.151l-0.002 0.002zM662.947 269.126l28.3 28.3-28.812 28.812c-9.046-10.019-18.281-19.254-27.965-28.002l-0.335-0.298zM143.174 429.196c-2.748-1.512-6.023-2.402-9.506-2.402-7.549 0-14.122 4.18-17.531 10.351l-0.052 0.103c-22.747 41.244-36.131 90.407-36.131 142.696 0 165.6 134.246 299.846 299.846 299.846s299.846-134.246 299.846-299.846c0-165.6-134.246-299.846-299.846-299.846-52.289 0-101.452 13.384-144.25 36.914l1.553-0.783c-6.615 3.358-11.069 10.111-11.069 17.904 0 11.054 8.961 20.015 20.015 20.015 3.719 0 7.201-1.014 10.184-2.781l-0.093 0.051c35.71-19.666 78.267-31.237 123.527-31.237 143.519 0 259.863 116.345 259.863 259.863s-116.345 259.863-259.863 259.863c-143.519 0-259.863-116.345-259.863-259.863 0-45.26 11.571-87.818 31.915-124.876l-0.679 1.349c1.6-2.812 2.543-6.177 2.543-9.763 0-7.531-4.16-14.091-10.307-17.507l-0.102-0.052zM634.554 814.592c-0.006 0-0.013 0-0.021 0-11.054 0-20.015 8.961-20.015 20.015s8.961 20.015 20.015 20.015c5.196 0 9.93-1.98 13.488-5.227l-0.016 0.014c3.996-3.671 6.492-8.922 6.492-14.755 0-11.029-8.92-19.974-19.939-20.014h-0.004zM181.993 362.031c-0.009 0-0.021 0-0.032 0-11.054 0-20.015 8.961-20.015 20.015s8.961 20.015 20.015 20.015c4.897 0 9.384-1.759 12.862-4.68l-0.031 0.025c4.403-3.697 7.183-9.204 7.183-15.36 0-11.043-8.943-19.997-19.981-20.015h-0.002zM170.543 568.46c-2.332 3.231-3.73 7.27-3.73 11.636s1.398 8.406 3.771 11.695l-0.041-0.059c49.947 60.901 125.199 99.453 209.455 99.453s159.507-38.552 209.077-98.978l0.378-0.474c2.332-3.231 3.73-7.27 3.73-11.636s-1.398-8.406-3.771-11.695l0.041 0.059c-49.947-60.901-125.199-99.453-209.455-99.453s-159.507 38.552-209.077 98.978l-0.378 0.474zM308.969 580.003c0-39.228 31.8-71.028 71.028-71.028s71.028 31.8 71.028 71.028c0 39.228-31.8 71.028-71.028 71.028v0c-39.19-0.053-70.949-31.795-71.028-70.974v-0.008zM547.84 580.003c-18.691 21.297-41.672 38.343-67.646 49.871l-1.241 0.492c7.636-14.636 12.115-31.964 12.115-50.339s-4.479-35.703-12.405-50.953l0.29 0.614c27.194 12.013 50.158 29.043 68.652 50.096l0.189 0.219zM281.088 529.641c-7.636 14.636-12.115 31.964-12.115 50.339s4.479 35.703 12.405 50.953l-0.29-0.614c-27.214-12.022-50.195-29.068-68.698-50.142l-0.189-0.22c18.697-21.259 41.678-38.275 67.645-49.778l1.243-0.491zM379.997 560.035v0c-11.054 0-20.015 8.961-20.015 20.015s8.961 20.015 20.015 20.015c11.054 0 20.015-8.961 20.015-20.015v0c0-11.054-8.961-20.015-20.015-20.015v0z" />
<glyph unicode="&#xe929;" glyph-name="heart1" d="M512 807.936l-31.232 30.72c-50.338 47.679-118.487 76.997-193.485 76.997-155.523 0-281.6-126.077-281.6-281.6 0-74.87 29.219-142.916 76.875-193.356l-0.126 0.135 429.568-429.568 429.568 430.080c47.53 50.306 76.749 118.352 76.749 193.221 0 155.523-126.077 281.6-281.6 281.6-74.997 0-143.147-29.318-193.613-77.118l0.129 0.121-31.232-31.232z" />
<glyph unicode="&#xe92a;" glyph-name="screen-full" d="M143.36 163.84l-143.36 143.36v-358.4h358.4l-143.36 143.36 222.208 221.184-72.704 72.704-221.184-222.208zM880.64 757.76l143.36-143.36v358.4h-358.4l143.36-143.36-222.208-221.184 72.704-72.704 221.184 222.208zM808.96 92.16l-143.36-143.36h358.4v358.4l-143.36-143.36-221.184 222.208-72.704-72.704 221.696-221.696zM215.040 829.44l143.36 143.36h-358.4v-358.4l143.36 143.36 221.184-222.208 72.704 72.704-222.208 221.184z" />
<glyph unicode="&#xe92b;" glyph-name="filter" d="M614.4 358.4l409.6 409.6v204.8h-1024v-204.8l409.6-409.6v-409.6l204.8 204.8v204.8z" />
<glyph unicode="&#xe92c;" glyph-name="minus" d="M213.333 384h597.333c23.552 0 42.667 19.115 42.667 42.667s-19.115 42.667-42.667 42.667h-597.333c-23.552 0-42.667-19.115-42.667-42.667s19.115-42.667 42.667-42.667z" />
</font>
</defs>
</svg>
